<?xml version="1.0" encoding="UTF-8" standalone="no"?>
<svg width="92px" height="66px" viewBox="0 0 92 66" version="1.1" xmlns="http://www.w3.org/2000/svg" xmlns:xlink="http://www.w3.org/1999/xlink">
    <!-- Generator: Sketch 46.2 (44496) - http://www.bohemiancoding.com/sketch -->
    <title>logo-inverse</title>
    <desc>Created with Sketch.</desc>
    <defs></defs>
    <g id="Page-1" stroke="none" stroke-width="1" fill="none" fill-rule="evenodd">
        <g id="logo-inverse" transform="translate(0.000000, -1.000000)" fill-rule="nonzero" fill="#FFFFFF">
            <rect id="Rectangle-path" x="0" y="1.00227018" width="1.75961093" height="11.597486"></rect>
            <polygon id="Shape" points="11.1921886 12.5997562 5.83362516 4.43954666 5.83362516 12.5997562 4.07401423 12.5997562 4.07401423 1.00227018 5.68634495 1.00227018 11.0460157 9.14697653 11.0460157 1.00227018 12.8056267 1.00227018 12.8056267 12.5997562"></polygon>
            <path d="M21.010131,3.36429039 C20.5217808,2.82721594 19.8695399,2.58248717 19.0390124,2.58248717 L16.9062178,2.58248717 L16.9062178,11.0195392 L19.0390124,11.0195392 C19.8695399,11.0195392 20.5217808,10.7759178 21.010131,10.237736 C21.6125403,9.56999187 21.6291508,8.31644903 21.6291508,6.71962149 C21.6291508,5.12390132 21.6125403,4.0320345 21.010131,3.36429039 M22.2160569,11.5078894 C21.4818706,12.2409683 20.4232249,12.5997562 19.2184063,12.5997562 L15.1466069,12.5997562 L15.1466069,1.00227018 L19.2184063,1.00227018 C20.4232249,1.00227018 21.4818706,1.36105806 22.2160569,2.094137 C23.4695998,3.34767984 23.3887618,5.04195594 23.3887618,6.71962149 C23.3887618,8.39728704 23.4695998,10.2543465 22.2160569,11.5078894" id="Shape"></path>
            <rect id="Rectangle-path" x="25.3709541" y="1.00227018" width="1.75961093" height="11.597486"></rect>
            <path d="M33.4414666,3.62452234 L31.6331314,8.7715781 L35.2010776,8.7715781 L33.4414666,3.62452234 Z M36.4867341,12.5997562 L35.6894277,10.2698497 L31.1126675,10.2698497 L30.3142537,12.5997562 L28.4405837,12.5997562 L32.6917771,1.00227018 L34.1092107,1.00227018 L38.3604042,12.5997562 L36.4867341,12.5997562 Z" id="Shape"></path>
            <polygon id="Shape" points="46.8162815 12.5997562 41.4577181 4.43954666 41.4577181 12.5997562 39.6981071 12.5997562 39.6981071 1.00227018 41.3104378 1.00227018 46.6701087 9.14697653 46.6701087 1.00227018 48.4286122 1.00227018 48.4286122 12.5997562"></polygon>
            <path d="M54.7660907,3.62452234 L52.9577555,8.7715781 L56.5257016,8.7715781 L54.7660907,3.62452234 Z M57.8113582,12.5997562 L57.0140518,10.2698497 L52.4372916,10.2698497 L51.6388778,12.5997562 L49.7652078,12.5997562 L54.0164012,1.00227018 L55.4338348,1.00227018 L59.6850283,12.5997562 L57.8113582,12.5997562 Z" id="Shape"></path>
            <path d="M4.52803593,25.5858842 L1.75850356,25.5858842 L1.75850356,29.1206092 L4.52803593,29.1206092 C5.74946504,29.1206092 6.4338197,28.3709197 6.4338197,27.3454951 C6.4338197,26.3189631 5.74946504,25.5858842 4.52803593,25.5858842 M4.36525254,20.6824498 L1.75850356,20.6824498 L1.75850356,24.0056672 L4.36525254,24.0056672 C5.48923309,24.0056672 6.25442576,23.4198685 6.25442576,22.3446122 C6.25442576,21.2693559 5.48923309,20.6824498 4.36525254,20.6824498 M4.69081932,30.7008262 L0,30.7008262 L0,19.1033402 L4.51142538,19.1033402 C6.66193792,19.1033402 8.01403669,20.3247693 8.01403669,22.2792774 C8.01403669,23.5339276 7.2311261,24.4297899 6.44932288,24.7387461 C7.34629258,25.097534 8.19232326,25.9601752 8.19232326,27.4263331 C8.19232326,29.5602351 6.74277593,30.7008262 4.69081932,30.7008262" id="Shape"></path>
            <rect id="Rectangle-path" x="10.1324355" y="19.1033402" width="1.75961093" height="11.597486"></rect>
            <path d="M19.7776282,21.302577 C19.370116,20.8629511 18.7344857,20.5861086 18.0512384,20.5861086 C17.3668837,20.5861086 16.7312533,20.8629511 16.3237412,21.302577 C15.7534456,21.9215968 15.6393865,22.5727304 15.6393865,24.9026369 C15.6393865,27.231436 15.7534456,27.8825696 16.3237412,28.5026968 C16.7312533,28.9412153 17.3668837,29.2191651 18.0512384,29.2191651 C18.7344857,29.2191651 19.370116,28.9412153 19.7776282,28.5026968 C20.3479237,27.8825696 20.4619829,27.231436 20.4619829,24.9026369 C20.4619829,22.5727304 20.3479237,21.9215968 19.7776282,21.302577 M21.1131164,29.5613425 C20.3147026,30.3586489 19.2881707,30.7982748 18.0512384,30.7982748 C16.8131987,30.7982748 15.8032773,30.3586489 15.0048635,29.5613425 C13.8653798,28.4207514 13.8808829,27.1339874 13.8808829,24.9026369 C13.8808829,22.6712863 13.8653798,21.383415 15.0048635,20.2439313 C15.8032773,19.4455175 16.8131987,19.0058916 18.0512384,19.0058916 C19.2881707,19.0058916 20.3147026,19.4455175 21.1131164,20.2439313 C22.2526001,21.383415 22.2204864,22.6712863 22.2204864,24.9026369 C22.2204864,27.1339874 22.2526001,28.4207514 21.1131164,29.5613425" id="Shape"></path>
            <path d="M27.402978,30.7982748 C25.6599776,30.7982748 24.4053274,30.39187 23.2990648,29.2667821 L24.4706623,28.1106878 C25.3178003,28.9578258 26.2468837,29.2180578 27.4350917,29.2180578 C28.9499739,29.2180578 29.8303331,28.5669242 29.8303331,27.4429437 C29.8303331,26.9379829 29.6830528,26.5138602 29.3740966,26.2381251 C29.0806436,25.9612826 28.7871905,25.8472235 28.1028359,25.7486676 L26.7352339,25.5537704 C25.7906473,25.4231008 25.0409578,25.097534 24.5359971,24.624687 C23.9657015,24.0876126 23.688859,23.3545336 23.688859,22.409947 C23.688859,20.3901041 25.1550169,19.0058916 27.5657614,19.0058916 C29.0972541,19.0058916 30.171403,19.3967932 31.1658213,20.3247693 L30.0418407,21.4321393 C29.3253723,20.7477846 28.4937375,20.536277 27.5170371,20.536277 C26.1483278,20.536277 25.3997457,21.3180802 25.3997457,22.3446122 C25.3997457,22.7676275 25.5304153,23.143026 25.8393716,23.4198685 C26.1328246,23.6801004 26.6045642,23.8761049 27.1427461,23.9569429 L28.4616237,24.1529474 C29.53688,24.3157308 30.1392893,24.5759627 30.6287468,25.0155886 C31.2632698,25.5692736 31.5733334,26.4009085 31.5733334,27.3942194 C31.5733334,29.5281214 29.8303331,30.7982748 27.402978,30.7982748" id="Shape"></path>
            <path d="M37.1954509,30.7982748 C35.989525,30.7982748 34.9474898,30.3586489 34.1490761,29.5602351 C33.0095923,28.4207514 33.0262029,27.1339874 33.0262029,24.9015295 C33.0262029,22.670179 33.0095923,21.383415 34.1490761,20.2428239 C34.9474898,19.4455175 35.989525,19.0058916 37.1954509,19.0058916 C38.6449983,19.0058916 39.5740817,19.5263555 40.4367229,20.3734936 L39.2640181,21.562809 C38.6616088,20.9603997 38.1555407,20.5850013 37.1954509,20.5850013 C36.5110963,20.5850013 35.8920764,20.8463406 35.4845643,21.2859665 C34.9142687,21.9049863 34.8002096,22.5727304 34.8002096,24.9015295 C34.8002096,27.231436 34.9142687,27.8991801 35.4845643,28.5181999 C35.8920764,28.9578258 36.5110963,29.2180578 37.1954509,29.2180578 C38.1555407,29.2180578 38.6616088,28.8437667 39.2640181,28.2413574 L40.4367229,29.4295654 C39.5740817,30.2778109 38.6449983,30.7982748 37.1954509,30.7982748" id="Shape"></path>
            <rect id="Rectangle-path" x="42.1088516" y="19.1033402" width="1.75961093" height="11.597486"></rect>
            <polygon id="Shape" points="46.1828658 30.7008262 46.1828658 19.1033402 53.5944933 19.1033402 53.5944933 20.6835572 47.9424768 20.6835572 47.9424768 24.071002 52.7628584 24.071002 52.7628584 25.6346085 47.9424768 25.6346085 47.9424768 29.1206092 53.5944933 29.1206092 53.5944933 30.7008262"></polygon>
            <polygon id="Shape" points="62.4080511 30.7008262 57.0494877 22.5395093 57.0494877 30.7008262 55.2909841 30.7008262 55.2909841 19.1033402 56.9033148 19.1033402 62.2629856 27.2480465 62.2629856 19.1033402 64.0214892 19.1033402 64.0214892 30.7008262"></polygon>
            <path d="M70.1950769,30.7982748 C68.989151,30.7982748 67.9471158,30.3586489 67.1487021,29.5602351 C66.0092183,28.4207514 66.0247215,27.1339874 66.0247215,24.9015295 C66.0247215,22.670179 66.0092183,21.383415 67.1487021,20.2428239 C67.9471158,19.4455175 68.989151,19.0058916 70.1950769,19.0058916 C71.6446243,19.0058916 72.5726003,19.5263555 73.4363489,20.3734936 L72.2636441,21.562809 C71.6601274,20.9603997 71.1551667,20.5850013 70.1950769,20.5850013 C69.5107223,20.5850013 68.8917024,20.8463406 68.4841903,21.2859665 C67.9138947,21.9049863 67.7998356,22.5727304 67.7998356,24.9015295 C67.7998356,27.231436 67.9138947,27.8991801 68.4841903,28.5181999 C68.8917024,28.9578258 69.5107223,29.2180578 70.1950769,29.2180578 C71.1551667,29.2180578 71.6601274,28.8437667 72.2636441,28.2413574 L73.4363489,29.4295654 C72.5726003,30.2778109 71.6446243,30.7982748 70.1950769,30.7982748" id="Shape"></path>
            <polygon id="Shape" points="75.109585 30.7008262 75.109585 19.1033402 82.520105 19.1033402 82.520105 20.6835572 76.8691959 20.6835572 76.8691959 24.071002 81.6895775 24.071002 81.6895775 25.6346085 76.8691959 25.6346085 76.8691959 29.1206092 82.520105 29.1206092 82.520105 30.7008262"></polygon>
            <path d="M87.8310515,30.7982748 C86.0880512,30.7982748 84.833401,30.39187 83.726031,29.2667821 L84.8998432,28.1106878 C85.7458738,28.9578258 86.6749573,29.2180578 87.8631653,29.2180578 C89.3780474,29.2180578 90.2584066,28.5669242 90.2584066,27.4429437 C90.2584066,26.9379829 90.1111264,26.5138602 89.8021701,26.2381251 C89.5087171,25.9612826 89.2152641,25.8472235 88.5309094,25.7486676 L87.1633074,25.5537704 C86.2187208,25.4231008 85.4690313,25.097534 84.9640706,24.624687 C84.3937751,24.0876126 84.1169326,23.3545336 84.1169326,22.409947 C84.1169326,20.3901041 85.5830905,19.0058916 87.9938349,19.0058916 C89.5253276,19.0058916 90.5994765,19.3967932 91.5938948,20.3247693 L90.4699143,21.4321393 C89.7534459,20.7477846 88.9229184,20.536277 87.9451107,20.536277 C86.5764013,20.536277 85.8278192,21.3180802 85.8278192,22.3446122 C85.8278192,22.7676275 85.9584889,23.143026 86.2674451,23.4198685 C86.5608982,23.6801004 87.0326378,23.8761049 87.5708196,23.9569429 L88.8896973,24.1529474 C89.9649535,24.3157308 90.5673628,24.5759627 91.055713,25.0155886 C91.6913434,25.5692736 92.0002996,26.4009085 92.0002996,27.3942194 C92.0002996,29.5281214 90.2584066,30.7982748 87.8310515,30.7982748" id="Shape"></path>
            <path d="M4.36525254,38.7835198 L1.75961093,38.7835198 L1.75961093,42.4156934 L4.36525254,42.4156934 C5.53795737,42.4156934 6.33637114,41.7479493 6.33637114,40.6084656 C6.33637114,39.4678745 5.53795737,38.7835198 4.36525254,38.7835198 L4.36525254,38.7835198 Z M6.40170597,48.8007889 L3.95774038,43.9150724 L1.75961093,43.9150724 L1.75961093,48.8007889 L0,48.8007889 L0,37.2044102 L4.4959222,37.2044102 C6.69405165,37.2044102 8.09598207,38.6207364 8.09598207,40.591855 C8.09598207,42.25291 7.08606063,43.3115558 5.78268614,43.6703436 L8.45366258,48.8007889 L6.40170597,48.8007889 Z" id="Shape"></path>
            <polygon id="Shape" points="10.0659933 48.8007889 10.0659933 37.2033028 17.4776207 37.2033028 17.4776207 38.7835198 11.8256042 38.7835198 11.8256042 42.172072 16.6459858 42.172072 16.6459858 43.7356785 11.8256042 43.7356785 11.8256042 47.2216792 17.4776207 47.2216792 17.4776207 48.8007889"></polygon>
            <path d="M22.7863525,48.8993448 C21.0433521,48.8993448 19.7898093,48.4918326 18.6824393,47.3678521 L19.8551441,46.2117578 C20.7011748,47.0577885 21.6302582,47.3191278 22.8195736,47.3191278 C24.3344558,47.3191278 25.2137075,46.6679942 25.2137075,45.5440137 C25.2137075,45.039053 25.0664273,44.6149303 24.7574711,44.3380878 C24.464018,44.0612453 24.170565,43.9471861 23.4862103,43.8497376 L22.1186084,43.6537331 C21.1740218,43.5241708 20.4243323,43.1974967 19.9193716,42.725757 C19.3501834,42.1875752 19.0722335,41.4556036 19.0722335,40.511017 C19.0722335,38.4911742 20.5383914,37.1058543 22.9491359,37.1058543 C24.4806286,37.1058543 25.5558849,37.4978633 26.5491958,38.4258393 L25.4252152,39.5332093 C24.7087468,38.8488547 23.8782193,38.637347 22.9004116,38.637347 C21.5317023,38.637347 20.7831202,39.4191502 20.7831202,40.4445748 C20.7831202,40.8686975 20.9137898,41.2429886 21.2227461,41.5209385 C21.5161991,41.7811704 21.9879387,41.9760675 22.5261205,42.0580129 L23.8449982,42.25291 C24.9202545,42.4156934 25.5226638,42.6770328 26.0110139,43.1166586 C26.6466443,43.6703436 26.9567079,44.5008711 26.9567079,45.494182 C26.9567079,47.628084 25.2137075,48.8993448 22.7863525,48.8993448" id="Shape"></path>
            <polygon id="Shape" points="28.6310514 48.8007889 28.6310514 37.2033028 36.0426788 37.2033028 36.0426788 38.7835198 30.3895549 38.7835198 30.3895549 42.172072 35.2121513 42.172072 35.2121513 43.7356785 30.3895549 43.7356785 30.3895549 47.2216792 36.0426788 47.2216792 36.0426788 48.8007889"></polygon>
            <path d="M42.0745231,39.8266624 L40.2661879,44.9737181 L43.8341341,44.9737181 L42.0745231,39.8266624 Z M45.1197906,48.8018962 L44.3213769,46.4730971 L39.7446167,46.4730971 L38.9473103,48.8018962 L37.0736402,48.8018962 L41.3248337,37.2044102 L42.7422673,37.2044102 L46.9934607,48.8018962 L45.1197906,48.8018962 Z" id="Shape"></path>
            <path d="M52.6964162,38.7835198 L50.0896672,38.7835198 L50.0896672,42.4156934 L52.6964162,42.4156934 C53.869121,42.4156934 54.6675348,41.7479493 54.6675348,40.6084656 C54.6675348,39.4678745 53.869121,38.7835198 52.6964162,38.7835198 L52.6964162,38.7835198 Z M54.7328696,48.8007889 L52.288904,43.9150724 L50.0896672,43.9150724 L50.0896672,48.8007889 L48.3311637,48.8007889 L48.3311637,37.2044102 L52.8259785,37.2044102 C55.0252153,37.2044102 56.4271457,38.6207364 56.4271457,40.591855 C56.4271457,42.25291 55.4161169,43.3115558 54.1138498,43.6703436 L56.7848262,48.8007889 L54.7328696,48.8007889 Z" id="Shape"></path>
            <path d="M62.1600002,48.8993448 C60.9540743,48.8993448 59.9120391,48.4597189 59.1136253,47.6613051 C57.9741416,46.520714 57.9907522,45.2339501 57.9907522,43.0025995 C57.9907522,40.771249 57.9741416,39.484485 59.1136253,38.3438939 C59.9120391,37.5454802 60.9540743,37.1058543 62.1600002,37.1058543 C63.6095475,37.1058543 64.538631,37.6274256 65.4012722,38.4745636 L64.2285674,39.663879 C63.6261581,39.0603623 63.1211974,38.6860713 62.1600002,38.6860713 C61.4756455,38.6860713 60.8566257,38.9463032 60.4491136,39.3859291 C59.878818,40.0060563 59.7647589,40.6726931 59.7647589,43.0025995 C59.7647589,45.332506 59.878818,45.9991428 60.4491136,46.61927 C60.8566257,47.0577885 61.4756455,47.3191278 62.1600002,47.3191278 C63.1211974,47.3191278 63.6261581,46.9437294 64.2285674,46.3413201 L65.4012722,47.5306355 C64.538631,48.3777735 63.6095475,48.8993448 62.1600002,48.8993448" id="Shape"></path>
            <polygon id="Shape" points="73.5404417 48.8007889 73.5404417 43.7356785 68.8330118 43.7356785 68.8330118 48.8007889 67.0745083 48.8007889 67.0745083 37.2033028 68.8330118 37.2033028 68.8330118 42.1554615 73.5404417 42.1554615 73.5404417 37.2033028 75.3000526 37.2033028 75.3000526 48.8007889"></polygon>
            <rect id="Rectangle-path" x="0" y="55.3043729" width="1.75961093" height="11.597486"></rect>
            <polygon id="Shape" points="11.1921886 66.9018589 5.83362516 58.7416493 5.83362516 66.9018589 4.07401423 66.9018589 4.07401423 55.3043729 5.68634495 55.3043729 11.0460157 63.4490792 11.0460157 55.3043729 12.8056267 55.3043729 12.8056267 66.9018589"></polygon>
            <path d="M18.4188852,67.0004148 C16.6758848,67.0004148 15.422342,66.5929026 14.314972,65.4689221 L15.4876768,64.3128278 C16.3337075,65.1588585 17.2627909,65.4201978 18.4521063,65.4201978 C19.9669885,65.4201978 20.8462403,64.7690643 20.8462403,63.6450837 C20.8462403,63.140123 20.69896,62.7160003 20.3900038,62.4391578 C20.0965508,62.1623153 19.8030977,62.0482562 19.118743,61.9508076 L17.7511411,61.7548031 C16.8065545,61.6252408 16.056865,61.2985667 15.5519043,60.8268271 C14.9827161,60.2897526 14.7047662,59.5555663 14.7047662,58.6120871 C14.7047662,56.5911368 16.1709241,55.2080317 18.5816686,55.2080317 C20.1131613,55.2080317 21.1884176,55.5978259 22.1817285,56.5269093 L21.0577479,57.6342793 C20.3412795,56.9499247 19.510752,56.738417 18.5329443,56.738417 C17.164235,56.738417 16.4156529,57.5202202 16.4156529,58.5467522 C16.4156529,58.9697676 16.5463225,59.345166 16.8552788,59.6209011 C17.1487318,59.8822404 17.6204714,60.0771376 18.1586533,60.1590829 L19.4775309,60.3550874 C20.5527872,60.5178708 21.1551965,60.7781028 21.6435467,61.2177287 C22.279177,61.7714137 22.5892406,62.6019412 22.5892406,63.5952521 C22.5892406,65.729154 20.8462403,67.0004148 18.4188852,67.0004148" id="Shape"></path>
            <polygon id="Shape" points="28.5092406 56.8845899 28.5092406 66.9018589 26.7496297 66.9018589 26.7496297 56.8845899 23.5581894 56.8845899 23.5581894 55.3043729 31.7017884 55.3043729 31.7017884 56.8845899"></polygon>
            <rect id="Rectangle-path" x="33.2033821" y="55.3043729" width="1.75961093" height="11.597486"></rect>
            <polygon id="Shape" points="41.3968127 56.8845899 41.3968127 66.9018589 39.6372018 66.9018589 39.6372018 56.8845899 36.4457614 56.8845899 36.4457614 55.3043729 44.5893604 55.3043729 44.5893604 56.8845899"></polygon>
            <path d="M50.1583241,67.0004148 C47.7963039,67.0004148 46.0045793,65.3869767 46.0045793,62.9928428 L46.0045793,55.3043729 L47.7630828,55.3043729 L47.7630828,62.9120048 C47.7630828,64.4590007 48.7076694,65.4201978 50.1583241,65.4201978 C51.6078715,65.4201978 52.5690686,64.4590007 52.5690686,62.9120048 L52.5690686,55.3043729 L54.3275722,55.3043729 L54.3275722,62.9928428 C54.3275722,65.3869767 52.5203444,67.0004148 50.1583241,67.0004148" id="Shape"></path>
            <polygon id="Shape" points="60.7027013 56.8845899 60.7027013 66.9018589 58.9430904 66.9018589 58.9430904 56.8845899 55.7505426 56.8845899 55.7505426 55.3043729 63.895249 55.3043729 63.895249 56.8845899"></polygon>
            <polygon id="Shape" points="65.3957353 66.9018589 65.3957353 55.3043729 72.8073628 55.3043729 72.8073628 56.8845899 67.1553463 56.8845899 67.1553463 60.2720347 71.9768353 60.2720347 71.9768353 61.8367485 67.1553463 61.8367485 67.1553463 65.3227493 72.8073628 65.3227493 72.8073628 66.9018589"></polygon>
        </g>
    </g>
</svg>