<?xml version="1.0" encoding="utf-8"?>
<!-- Generator: Adobe Illustrator 25.0.0, SVG Export Plug-In . SVG Version: 6.00 Build 0)  -->
<svg version="1.1" xmlns="http://www.w3.org/2000/svg" xmlns:xlink="http://www.w3.org/1999/xlink" x="0px" y="0px"
	 viewBox="0 0 635.8 364.5" style="enable-background:new 0 0 635.8 364.5;" xml:space="preserve">
<style type="text/css">
	.st0{fill:none;}
	.st1{fill:#1E7139;}
	.st2{fill:#C41F43;}
	.Graphic_x0020_Style_x0020_2{fill:none;stroke:url(#_x31_0_dpi_60_x25__2);stroke-miterlimit:10;}
	.Graphic_x0020_Style{fill:none;stroke:url(#_x31_0_dpi_60_x25__3);stroke-miterlimit:10;}
	.st3{fill:#A6A5A5;}
	.st4{fill:#A9D08D;}
	.st5{fill:#F3B183;}
	.st6{fill:#BFBFBF;}
	.st7{fill:none;stroke:#000000;stroke-width:2;stroke-miterlimit:10;}
	.st8{fill:#FFFFFF;stroke:#000000;stroke-miterlimit:10;}
	.st9{font-family:'MyriadPro-Regular';}
	.st10{font-size:5.4434px;}
	.st11{font-size:4.6658px;}
	.st12{fill:#FFFFFF;stroke:#414141;stroke-width:3;stroke-miterlimit:8;}
	.st13{font-family:'Arial-BoldMT';}
	.st14{font-size:11px;}
	.st15{font-family:'Arial-ItalicMT';}
	.st16{display:none;}
	.st17{fill-rule:evenodd;clip-rule:evenodd;fill:#A6A5A5;}
	.st18{fill:#FFFFFF;stroke:#FFFFFF;stroke-width:0.5;stroke-miterlimit:10;}
	.st19{fill:#231F20;stroke:#FFFFFF;stroke-width:0.5;stroke-miterlimit:10;}
	.st20{fill:#FFFFFF;stroke:#2D75B6;stroke-width:0.75;stroke-miterlimit:8;}
	.st21{fill:none;stroke:#2D75B6;stroke-width:0.75;stroke-miterlimit:8;}
	.st22{fill:#2D75B6;}
	.st23{fill:#FFFFFF;}
	.st24{fill:#5C9BD3;}
	.st25{fill:#FFFFFF;stroke:#55823B;stroke-width:3;stroke-miterlimit:8;}
	.st26{fill:#56823B;}
	.st27{font-family:'ArialMT';}
	.st28{font-size:12px;}
	.st29{fill:none;stroke:#56823B;stroke-miterlimit:10;}
	.st30{fill:#009444;stroke:#56823B;stroke-miterlimit:10;}
	.st31{fill:#55823B;}
	.st32{fill:none;stroke:#55823B;stroke-width:1.5;stroke-miterlimit:8;}
	.st33{fill:#395829;}
	.st34{clip-path:url(#SVGID_2_);fill:none;stroke:#1D401D;stroke-width:0.6872;stroke-linecap:round;stroke-miterlimit:10;}
	.st35{clip-path:url(#SVGID_2_);fill-rule:evenodd;clip-rule:evenodd;fill:#1D401D;}
	.st36{fill:#FFFFFF;stroke:#2F75B6;stroke-width:3;stroke-miterlimit:8;}
	.st37{fill:#1C75BC;}
	.st38{fill-rule:evenodd;clip-rule:evenodd;fill:#5C9BD3;stroke:#2E3192;stroke-miterlimit:8;}
	.st39{fill:#FFFFFF;stroke:#2D76B5;stroke-width:0.5;stroke-miterlimit:8;}
	.st40{fill:#4E4E4E;}
	.st41{fill:none;stroke:#4E4E4E;stroke-miterlimit:8;}
	.st42{fill:none;stroke:#010101;stroke-miterlimit:10;}
	.st43{fill:#FFFFFF;stroke:#010101;stroke-miterlimit:10;}
	.st44{fill:none;stroke:#000000;stroke-width:1.5;stroke-miterlimit:10;}
	.st45{fill:none;stroke:#ED1C24;stroke-miterlimit:10;}
	.st46{fill:none;stroke:#ED1C24;stroke-miterlimit:10;stroke-dasharray:4.2406,4.2406;}
	.st47{fill:none;stroke:#009444;stroke-miterlimit:10;}
	.st48{fill:none;stroke:#009444;stroke-miterlimit:10;stroke-dasharray:4.2406,4.2406;}
	.st49{font-size:5.3634px;}
	.st50{font-size:4.5972px;}
	.st51{font-family:'ArialNarrow';}
	.st52{font-size:10px;}
	.st53{fill:none;stroke:#ED1C24;stroke-miterlimit:10;stroke-dasharray:4.1972,4.1972;}
	.st54{fill:none;stroke:#39B54A;stroke-miterlimit:10;}
	.st55{fill:none;stroke:#39B54A;stroke-miterlimit:10;stroke-dasharray:4.1972,4.1972;}
	.st56{font-size:5.3123px;}
	.st57{font-size:4.5534px;}
	.st58{display:inline;fill:#FFFFFF;}
	.st59{fill:#FFFFFF;stroke:#C45B28;stroke-width:3;stroke-miterlimit:8;}
	.st60{fill:#C45B28;}
	.st61{fill:#C45B28;stroke:#C45B28;stroke-miterlimit:10;}
</style>
<pattern  x="-124" y="-126.9" width="28.8" height="28.8" patternUnits="userSpaceOnUse" id="_x31_0_dpi_60_x25__2" viewBox="4.3 -33.1 28.8 28.8" style="overflow:visible;">
	<g>
		<rect x="4.3" y="-33.1" class="st0" width="28.8" height="28.8"/>
		<g>
			<path class="st1" d="M33.1,0c2.4,0,4.3-1.9,4.3-4.3s-1.9-4.3-4.3-4.3c-2.4,0-4.3,1.9-4.3,4.3S30.7,0,33.1,0z"/>
			<path class="st1" d="M18.7,0C21.1,0,23-1.9,23-4.3s-1.9-4.3-4.3-4.3c-2.4,0-4.3,1.9-4.3,4.3S16.3,0,18.7,0z"/>
			<path class="st1" d="M33.1-14.4c2.4,0,4.3-1.9,4.3-4.3c0-2.4-1.9-4.3-4.3-4.3c-2.4,0-4.3,1.9-4.3,4.3
				C28.8-16.3,30.7-14.4,33.1-14.4z"/>
			<path class="st1" d="M18.7-14.4c2.4,0,4.3-1.9,4.3-4.3c0-2.4-1.9-4.3-4.3-4.3c-2.4,0-4.3,1.9-4.3,4.3
				C14.4-16.3,16.3-14.4,18.7-14.4z"/>
			<path class="st1" d="M11.5-7.2c2.4,0,4.3-1.9,4.3-4.3c0-2.4-1.9-4.3-4.3-4.3c-2.4,0-4.3,1.9-4.3,4.3C7.2-9.1,9.1-7.2,11.5-7.2z"
				/>
			<path class="st1" d="M25.9-7.2c2.4,0,4.3-1.9,4.3-4.3c0-2.4-1.9-4.3-4.3-4.3s-4.3,1.9-4.3,4.3C21.6-9.1,23.5-7.2,25.9-7.2z"/>
			<path class="st1" d="M11.5-21.6c2.4,0,4.3-1.9,4.3-4.3c0-2.4-1.9-4.3-4.3-4.3c-2.4,0-4.3,1.9-4.3,4.3
				C7.2-23.5,9.1-21.6,11.5-21.6z"/>
			<path class="st1" d="M25.9-21.6c2.4,0,4.3-1.9,4.3-4.3c0-2.4-1.9-4.3-4.3-4.3s-4.3,1.9-4.3,4.3C21.6-23.5,23.5-21.6,25.9-21.6z"
				/>
		</g>
		<g>
			<path class="st1" d="M4.3,0c2.4,0,4.3-1.9,4.3-4.3S6.7-8.6,4.3-8.6C1.9-8.6,0-6.7,0-4.3S1.9,0,4.3,0z"/>
			<path class="st1" d="M4.3-14.4c2.4,0,4.3-1.9,4.3-4.3c0-2.4-1.9-4.3-4.3-4.3C1.9-23,0-21.1,0-18.7C0-16.3,1.9-14.4,4.3-14.4z"/>
		</g>
		<g>
			<path class="st1" d="M33.1-28.8c2.4,0,4.3-1.9,4.3-4.3s-1.9-4.3-4.3-4.3c-2.4,0-4.3,1.9-4.3,4.3S30.7-28.8,33.1-28.8z"/>
			<path class="st1" d="M18.7-28.8c2.4,0,4.3-1.9,4.3-4.3s-1.9-4.3-4.3-4.3c-2.4,0-4.3,1.9-4.3,4.3S16.3-28.8,18.7-28.8z"/>
		</g>
		<g>
			<path class="st1" d="M4.3-28.8c2.4,0,4.3-1.9,4.3-4.3s-1.9-4.3-4.3-4.3c-2.4,0-4.3,1.9-4.3,4.3S1.9-28.8,4.3-28.8z"/>
		</g>
	</g>
</pattern>
<pattern  x="-124" y="-126.9" width="28.8" height="28.8" patternUnits="userSpaceOnUse" id="_x31_0_dpi_60_x25__3" viewBox="4.3 -33.1 28.8 28.8" style="overflow:visible;">
	<g>
		<rect x="4.3" y="-33.1" class="st0" width="28.8" height="28.8"/>
		<g>
			<path class="st2" d="M33.1,0c2.4,0,4.3-1.9,4.3-4.3s-1.9-4.3-4.3-4.3c-2.4,0-4.3,1.9-4.3,4.3S30.7,0,33.1,0z"/>
			<path class="st2" d="M18.7,0C21.1,0,23-1.9,23-4.3s-1.9-4.3-4.3-4.3c-2.4,0-4.3,1.9-4.3,4.3S16.3,0,18.7,0z"/>
			<path class="st2" d="M33.1-14.4c2.4,0,4.3-1.9,4.3-4.3c0-2.4-1.9-4.3-4.3-4.3c-2.4,0-4.3,1.9-4.3,4.3
				C28.8-16.3,30.7-14.4,33.1-14.4z"/>
			<path class="st2" d="M18.7-14.4c2.4,0,4.3-1.9,4.3-4.3c0-2.4-1.9-4.3-4.3-4.3c-2.4,0-4.3,1.9-4.3,4.3
				C14.4-16.3,16.3-14.4,18.7-14.4z"/>
			<path class="st2" d="M11.5-7.2c2.4,0,4.3-1.9,4.3-4.3c0-2.4-1.9-4.3-4.3-4.3c-2.4,0-4.3,1.9-4.3,4.3C7.2-9.1,9.1-7.2,11.5-7.2z"
				/>
			<path class="st2" d="M25.9-7.2c2.4,0,4.3-1.9,4.3-4.3c0-2.4-1.9-4.3-4.3-4.3s-4.3,1.9-4.3,4.3C21.6-9.1,23.5-7.2,25.9-7.2z"/>
			<path class="st2" d="M11.5-21.6c2.4,0,4.3-1.9,4.3-4.3c0-2.4-1.9-4.3-4.3-4.3c-2.4,0-4.3,1.9-4.3,4.3
				C7.2-23.5,9.1-21.6,11.5-21.6z"/>
			<path class="st2" d="M25.9-21.6c2.4,0,4.3-1.9,4.3-4.3c0-2.4-1.9-4.3-4.3-4.3s-4.3,1.9-4.3,4.3C21.6-23.5,23.5-21.6,25.9-21.6z"
				/>
		</g>
		<g>
			<path class="st2" d="M4.3,0c2.4,0,4.3-1.9,4.3-4.3S6.7-8.6,4.3-8.6C1.9-8.6,0-6.7,0-4.3S1.9,0,4.3,0z"/>
			<path class="st2" d="M4.3-14.4c2.4,0,4.3-1.9,4.3-4.3c0-2.4-1.9-4.3-4.3-4.3C1.9-23,0-21.1,0-18.7C0-16.3,1.9-14.4,4.3-14.4z"/>
		</g>
		<g>
			<path class="st2" d="M33.1-28.8c2.4,0,4.3-1.9,4.3-4.3s-1.9-4.3-4.3-4.3c-2.4,0-4.3,1.9-4.3,4.3S30.7-28.8,33.1-28.8z"/>
			<path class="st2" d="M18.7-28.8c2.4,0,4.3-1.9,4.3-4.3s-1.9-4.3-4.3-4.3c-2.4,0-4.3,1.9-4.3,4.3S16.3-28.8,18.7-28.8z"/>
		</g>
		<g>
			<path class="st2" d="M4.3-28.8c2.4,0,4.3-1.9,4.3-4.3s-1.9-4.3-4.3-4.3c-2.4,0-4.3,1.9-4.3,4.3S1.9-28.8,4.3-28.8z"/>
		</g>
	</g>
</pattern>
<g id="Arrows">
	<path id="C1_-_x3E__C2" class="st3" d="M76.9,153.4V96.8c0-24.6,22.2-44.5,49.5-44.5h124.4V42.2l22.4,22.7l-22.4,22.7V77.4H126.4
		c-12,0-21.7,8.7-21.7,19.5v56.5H76.9z"/>
	<path id="C2" class="st4" d="M333.4,47.2h212.5c32,0,58,30.9,58,69h13.9l-27.1,33.3l-27.1-33.3h13.9c0-20.9-14.2-37.8-31.7-37.8
		l-212.5,0V47.2z"/>
	<path id="C2_-_x3E__C4_-_x3E__C1" class="st5" d="M547.9,338.9H133.1c-28.9,0-52.3-23.5-52.3-52.4v-13.8H68l26-29.1l26,29.1h-12.7
		v13.8c0,14.2,11.5,25.8,25.7,25.8h414.9V338.9z"/>
	<polygon id="C1_-_x3E__C3" class="st6" points="150.4,188.3 167.4,188.3 167.4,176.1 184.4,200.6 167.4,225 167.4,212.8 
		150.4,212.8 	"/>
</g>
<g id="Component_1">
	<g>
		<path class="st7" d="M251.8,240.8c-0.3,0-0.7,0.1-1.2-0.1c-8.8-2.1-16.8-41.6-18.4-49.2c-0.3-1.5-0.8-3.8-1.5-3.5
			c-2.3,0.8-5.9,26.2-6.9,49.7l-0.1,3.3"/>
		<rect x="222.9" y="183.1" class="st7" width="60" height="63.3"/>
		<path class="st8" d="M222.9,203.4"/>
		<line class="Graphic_x0020_Style" x1="282.9" y1="207.5" x2="222.9" y2="207.5"/>
		<line class="Graphic_x0020_Style_x0020_2" x1="282.9" y1="230.3" x2="222.9" y2="230.3"/>
		<text transform="matrix(1 0 0 1 243.786 253.1522)" class="st9 st10">Time</text>
		<text transform="matrix(0 -1 1 0 219.5887 243.077)" class="st9 st11">Pain      </text>
		<path class="st7" d="M280,240.8c-0.3,0-0.7,0.1-1.2-0.1c-8.8-2.1-16.8-41.6-18.4-49.2c-0.3-1.5-0.8-3.8-1.5-3.5
			c-2.3,0.8-5.9,26.2-6.9,49.7l-0.1,3.3"/>
		<text transform="matrix(0 -1 1 0 219.5379 225.952)" class="st9 st11">Normal       </text>
		<text transform="matrix(0 -1 1 0 219.4867 203.3612)" class="st9 st11"> Reward</text>
	</g>
	<path id="Component_Outline" class="st12" d="M38.4,167.1c0-8.2,6.7-14.9,14.9-14.9h81.9c8.2,0,14.9,6.7,14.9,14.9v59.4
		c0,8.2-6.7,14.9-14.9,14.9H53.2c-8.2,0-14.9-6.7-14.9-14.9V167.1z"/>
	<text id="Text_-_Data_Repositories" transform="matrix(1 0 0 1 48.9708 170.4161)" class="st13 st14">Data Repositories</text>
	<text transform="matrix(1 0 0 1 5.8068 145.1071)" class="st15 st14">Component 1</text>
	<g id="Database_External" class="st16">
	</g>
	<g id="Layer_6">
		<path class="st17" d="M31.8,215.9l-20.3,0.2v6.3L0,209.2h31.6C31.6,211.4,31.7,213.6,31.8,215.9z"/>
		<path class="st17" d="M0.8,197.5l19.8-0.2v-6.7l11.2,13.9H1C0.9,202.2,0.8,199.8,0.8,197.5z"/>
	</g>
	<g id="Database_2">
		<rect x="104.1" y="187.3" class="st18" width="30" height="26.5"/>
		<path class="st19" d="M134,193.6c0,2.7-6.7,4.9-15,4.9s-15-2.2-15-4.9v-4.9c0,2.7,6.7,4.9,15,4.9s15-2.2,15-4.9V193.6z"/>
		<ellipse class="st19" cx="119.1" cy="187.3" rx="15" ry="4.9"/>
		<path class="st19" d="M134,199.9c0,2.7-6.7,4.9-15,4.9s-15-2.2-15-4.9v-4.9c0,2.7,6.7,4.9,15,4.9s15-2.2,15-4.9V199.9z"/>
		<path class="st19" d="M134,206.2c0,2.7-6.7,4.9-15,4.9s-15-2.2-15-4.9v-4.9c0,2.7,6.7,4.9,15,4.9s15-2.2,15-4.9L134,206.2
			L134,206.2z"/>
		<path class="st19" d="M134,212.6c0,2.7-6.7,4.9-15,4.9s-15-2.2-15-4.9v-4.9c0,2.7,6.7,4.9,15,4.9s15-2.2,15-4.9L134,212.6
			L134,212.6z"/>
	</g>
	<g id="Table">
		<rect x="120.5" y="211.1" class="st20" width="17.8" height="14.7"/>
		<line class="st21" x1="135.2" y1="211.1" x2="135.2" y2="226.2"/>
		<line class="st21" x1="120.5" y1="223.5" x2="138.4" y2="223.5"/>
		<rect x="120.5" y="211.1" class="st22" width="17.8" height="3.1"/>
		<rect x="120.5" y="211.1" class="st21" width="17.8" height="3.1"/>
		<line class="st21" x1="120.5" y1="221.2" x2="138.4" y2="221.2"/>
		<line class="st21" x1="120.5" y1="218.9" x2="138.4" y2="218.9"/>
		<line class="st21" x1="120.5" y1="216.8" x2="138.4" y2="216.8"/>
		<line class="st21" x1="129" y1="211.1" x2="129" y2="226.2"/>
		<line class="st21" x1="125.9" y1="211.1" x2="125.9" y2="226.2"/>
		<line class="st21" x1="123.6" y1="211.1" x2="123.6" y2="226.2"/>
		<line class="st21" x1="132.1" y1="211.1" x2="132.1" y2="226.2"/>
	</g>
	<g id="Database_1">
		<rect x="56" y="188.5" class="st18" width="30" height="26.5"/>
		<path class="st19" d="M86,194.8c0,2.7-6.7,4.9-15,4.9s-15-2.2-15-4.9v-4.9c0,2.7,6.7,4.9,15,4.9s15-2.2,15-4.9V194.8z"/>
		<ellipse class="st19" cx="71" cy="188.5" rx="15" ry="4.9"/>
		<path class="st19" d="M86,201.1c0,2.7-6.7,4.9-15,4.9s-15-2.2-15-4.9v-4.9c0,2.7,6.7,4.9,15,4.9s15-2.2,15-4.9V201.1z"/>
		<path class="st19" d="M86,207.4c0,2.7-6.7,4.9-15,4.9s-15-2.2-15-4.9v-4.9c0,2.7,6.7,4.9,15,4.9s15-2.2,15-4.9L86,207.4L86,207.4z
			"/>
		<path class="st19" d="M86,213.7c0,2.7-6.7,4.9-15,4.9s-15-2.2-15-4.9v-4.9c0,2.7,6.7,4.9,15,4.9s15-2.2,15-4.9L86,213.7L86,213.7z
			"/>
	</g>
	<g id="Benzene">
		<polygon class="st23" points="68,218.5 71.7,211.1 82.2,211.1 85.8,218.5 82.2,225.8 71.7,225.8 		"/>
		<polygon class="st21" points="68,218.5 71.7,211.1 82.2,211.1 85.8,218.5 82.2,225.8 71.7,225.8 		"/>
		<line class="st23" x1="73.4" y1="212.7" x2="81.1" y2="212.7"/>
		<line class="st21" x1="73.4" y1="212.7" x2="81.1" y2="212.7"/>
		<line class="st23" x1="83.5" y1="217.4" x2="80" y2="224.2"/>
		<line class="st21" x1="83.5" y1="217.4" x2="80" y2="224.2"/>
		<line class="st23" x1="72.8" y1="224.2" x2="69.3" y2="217.4"/>
		<line class="st21" x1="72.8" y1="224.2" x2="69.3" y2="217.4"/>
	</g>
</g>
<g id="Component_2">
	<polygon class="st24" points="388.5,142 388.5,123 374,123 403,104 432,123 417.5,123 417.5,142 	"/>
	<polygon class="st24" points="477.6,142 477.6,123 463.1,123 492.1,104 521.1,123 506.6,123 506.6,142 	"/>
	<g id="Synthesis">
		<path id="Component_Outline_3_" class="st25" d="M548.9,167.2c0-7.9,6.4-14.3,14.3-14.3h57.3c7.9,0,14.3,6.4,14.3,14.3v182.1
			c0,7.9-6.4,14.3-14.3,14.3h-57.3c-7.9,0-14.3-6.4-14.3-14.3V167.2z"/>
		<text transform="matrix(1 0 0 1 565.9241 172.6407)" class="st26 st27 st28">Synthesis</text>
		<g id="Robot_-_Green_3_">
			<g id="Robot_Body_4_">
				<circle class="st29" cx="574.8" cy="317" r="1.9"/>
				<path class="st30" d="M572.9,330.3l-1.8,1.9c-0.5-0.5-0.9-1.2-0.9-1.9c0-1.4,1.2-2.6,2.6-2.6c1.4,0,2.6,1.2,2.6,2.6H572.9z"/>
				<path class="st30" d="M611,330.3l-2.6,0.1c0-0.7,0.2-1.5,0.8-2c1-1,2.7-1,3.7,0c1,1,1,2.7,0,3.7L611,330.3z"/>
				<circle class="st29" cx="609" cy="317.2" r="1.9"/>
				<line class="st30" x1="573" y1="328.5" x2="574.4" y2="319.1"/>
				<line class="st30" x1="609.2" y1="319.1" x2="610.8" y2="328.8"/>
				<line class="st30" x1="599.2" y1="319.7" x2="607.2" y2="317.7"/>
				<line class="st30" x1="585" y1="319.7" x2="576.6" y2="317.6"/>
				<line class="st30" x1="581.5" y1="309.6" x2="586.9" y2="314.7"/>
				<line class="st30" x1="601.8" y1="309.6" x2="596.4" y2="315.3"/>
				<path id="path58241_4_" class="st30" d="M591.9,311.3c-0.6,0-1.1,0.1-1.7,0.2v1.3c-0.7,0.2-1.4,0.5-2,0.8l-0.9-0.9
					c-0.5,0.3-0.9,0.7-1.3,1.1c-0.4,0.4-0.8,0.8-1.1,1.3l0.9,0.9c-0.4,0.6-0.7,1.3-0.8,2h-1.3c-0.1,0.5-0.2,1.1-0.2,1.7
					s0.1,1.1,0.2,1.7h1.3c0.2,0.7,0.5,1.4,0.8,2l-0.9,0.9c0.3,0.5,0.7,0.9,1.1,1.3c0.4,0.4,0.8,0.8,1.3,1.1l0.9-0.9
					c0.6,0.4,1.3,0.7,2,0.8v1.3c0.5,0.1,1.1,0.2,1.7,0.2c0.6,0,1.1-0.1,1.7-0.2v-1.3c0.7-0.2,1.4-0.5,2-0.8l0.9,0.9
					c0.5-0.3,0.9-0.7,1.3-1.1c0.4-0.4,0.8-0.8,1.1-1.3l-0.9-0.9c0.4-0.6,0.7-1.3,0.8-2h1.3c0.1-0.5,0.2-1.1,0.2-1.7
					s-0.1-1.1-0.2-1.7h-1.3c-0.2-0.7-0.5-1.4-0.8-2l0.9-0.9c-0.3-0.5-0.7-0.9-1.1-1.3c-0.4-0.4-0.8-0.8-1.3-1.1l-0.9,0.9
					c-0.6-0.4-1.3-0.7-2-0.8v-1.3C593,311.4,592.4,311.3,591.9,311.3z M591.9,315.5c2.3,0,4.2,1.9,4.2,4.2c0,2.3-1.9,4.2-4.2,4.2
					c-2.3,0-4.2-1.9-4.2-4.2C587.7,317.4,589.6,315.5,591.9,315.5z"/>
			</g>
			<g id="Header_4_">
				<rect x="569.1" y="302.4" class="st26" width="3.8" height="5.2"/>
				<rect x="611" y="302.4" class="st26" width="3.8" height="5.2"/>
				<rect x="574.8" y="302.4" class="st26" width="34.2" height="5.2"/>
			</g>
			<g id="Parts_4_">
				<circle class="st26" cx="606" cy="335.9" r="3"/>
				<path class="st26" d="M599.3,338.9h-5.1c-0.8,0-1.5-0.6-1.5-1.3v-3.5c0-0.7,0.7-1.3,1.5-1.3h1.3l1.2,2.1l1.1-2.1h1.5
					c0.8,0,1.5,0.6,1.5,1.3v3.5C600.8,338.3,600.2,338.9,599.3,338.9z"/>
				<path class="st26" d="M589.7,338.9h-4.4c-1,0-1.8-0.7-1.8-1.6v-2.9c0-0.9,0.8-1.6,1.8-1.6h0.8c0.1,0,0.3,0.1,0.3,0.2l0.8,1.4
					c0.1,0.2,0.5,0.2,0.6,0l0.7-1.3c0.1-0.1,0.2-0.2,0.3-0.2h0.9c1,0,1.8,0.7,1.8,1.6v2.9C591.5,338.2,590.7,338.9,589.7,338.9z"/>
				<path class="st26" d="M580.8,338.9h-5.1c-0.8,0-1.5-0.6-1.5-1.3v-3.5c0-0.7,0.7-1.3,1.5-1.3h1.3l1.2,2.1l1.1-2.1h1.5
					c0.8,0,1.5,0.6,1.5,1.3v3.5C582.2,338.3,581.6,338.9,580.8,338.9z"/>
			</g>
			<path id="Treads_4_" class="st26" d="M609.9,338.4h-35.8c-2.4,0-4.4,2-4.4,4.4s2,4.4,4.4,4.4h35.8c2.4,0,4.4-2,4.4-4.4
				S612.4,338.4,609.9,338.4z M575.4,344.4c-0.8,0-1.5-0.7-1.5-1.5s0.7-1.5,1.5-1.5s1.5,0.7,1.5,1.5S576.2,344.4,575.4,344.4z
				 M583.6,344.5c-0.9,0-1.6-0.7-1.6-1.6s0.7-1.6,1.6-1.6s1.6,0.7,1.6,1.6S584.5,344.5,583.6,344.5z M591.9,344.5
				c-0.9,0-1.6-0.7-1.6-1.6s0.7-1.6,1.6-1.6c0.9,0,1.6,0.7,1.6,1.6S592.8,344.5,591.9,344.5z M600.2,344.5c-0.9,0-1.6-0.7-1.6-1.6
				s0.7-1.6,1.6-1.6s1.6,0.7,1.6,1.6S601.1,344.5,600.2,344.5z M608.3,344.5c-0.9,0-1.6-0.7-1.6-1.6s0.7-1.6,1.6-1.6
				s1.6,0.7,1.6,1.6S609.2,344.5,608.3,344.5z"/>
		</g>
		<g id="Robot_-_Green_1_">
			<g id="Robot_Body_3_">
				<circle class="st29" cx="574.8" cy="258.1" r="1.9"/>
				<path class="st30" d="M572.9,271.3l-1.8,1.9c-0.5-0.5-0.9-1.2-0.9-1.9c0-1.4,1.2-2.6,2.6-2.6c1.4,0,2.6,1.2,2.6,2.6H572.9z"/>
				<path class="st30" d="M611,271.3l-2.6,0.1c0-0.7,0.2-1.5,0.8-2c1-1,2.7-1,3.7,0c1,1,1,2.7,0,3.7L611,271.3z"/>
				<circle class="st29" cx="609" cy="258.2" r="1.9"/>
				<line class="st30" x1="573" y1="269.5" x2="574.4" y2="260.1"/>
				<line class="st30" x1="609.2" y1="260.1" x2="610.8" y2="269.8"/>
				<line class="st30" x1="599.2" y1="260.7" x2="607.2" y2="258.7"/>
				<line class="st30" x1="585" y1="260.7" x2="576.6" y2="258.6"/>
				<line class="st30" x1="581.5" y1="250.6" x2="586.9" y2="255.8"/>
				<line class="st30" x1="601.8" y1="250.7" x2="596.4" y2="256.4"/>
				<path id="path58241_3_" class="st30" d="M591.9,252.3c-0.6,0-1.1,0.1-1.7,0.2v1.3c-0.7,0.2-1.4,0.5-2,0.8l-0.9-0.9
					c-0.5,0.3-0.9,0.7-1.3,1.1c-0.4,0.4-0.8,0.8-1.1,1.3l0.9,0.9c-0.4,0.6-0.7,1.3-0.8,2h-1.3c-0.1,0.5-0.2,1.1-0.2,1.7
					s0.1,1.1,0.2,1.7h1.3c0.2,0.7,0.5,1.4,0.8,2l-0.9,0.9c0.3,0.5,0.7,0.9,1.1,1.3c0.4,0.4,0.8,0.8,1.3,1.1l0.9-0.9
					c0.6,0.4,1.3,0.7,2,0.8v1.3c0.5,0.1,1.1,0.2,1.7,0.2c0.6,0,1.1-0.1,1.7-0.2v-1.3c0.7-0.2,1.4-0.5,2-0.8l0.9,0.9
					c0.5-0.3,0.9-0.7,1.3-1.1c0.4-0.4,0.8-0.8,1.1-1.3l-0.9-0.9c0.4-0.6,0.7-1.3,0.8-2h1.3c0.1-0.5,0.2-1.1,0.2-1.7
					s-0.1-1.1-0.2-1.7h-1.3c-0.2-0.7-0.5-1.4-0.8-2l0.9-0.9c-0.3-0.5-0.7-0.9-1.1-1.3c-0.4-0.4-0.8-0.8-1.3-1.1l-0.9,0.9
					c-0.6-0.4-1.3-0.7-2-0.8v-1.3C593,252.4,592.4,252.3,591.9,252.3z M591.9,256.5c2.3,0,4.2,1.9,4.2,4.2c0,2.3-1.9,4.2-4.2,4.2
					c-2.3,0-4.2-1.9-4.2-4.2C587.7,258.4,589.6,256.5,591.9,256.5z"/>
			</g>
			<g id="Header_3_">
				<rect x="569.1" y="243.4" class="st26" width="3.8" height="5.2"/>
				<rect x="611" y="243.4" class="st26" width="3.8" height="5.2"/>
				<rect x="574.8" y="243.4" class="st26" width="34.2" height="5.2"/>
			</g>
			<g id="Parts_3_">
				<circle class="st26" cx="606" cy="276.9" r="3"/>
				<path class="st26" d="M599.3,279.9h-5.1c-0.8,0-1.5-0.6-1.5-1.3v-3.5c0-0.7,0.7-1.3,1.5-1.3h1.3l1.2,2.1l1.1-2.1h1.5
					c0.8,0,1.5,0.6,1.5,1.3v3.5C600.8,279.4,600.2,279.9,599.3,279.9z"/>
				<path class="st26" d="M589.7,279.9h-4.4c-1,0-1.8-0.7-1.8-1.6v-2.9c0-0.9,0.8-1.6,1.8-1.6h0.8c0.1,0,0.3,0.1,0.3,0.2l0.8,1.4
					c0.1,0.2,0.5,0.2,0.6,0l0.7-1.3c0.1-0.1,0.2-0.2,0.3-0.2h0.9c1,0,1.8,0.7,1.8,1.6v2.9C591.5,279.2,590.7,279.9,589.7,279.9z"/>
				<path class="st26" d="M580.8,279.9h-5.1c-0.8,0-1.5-0.6-1.5-1.3v-3.5c0-0.7,0.7-1.3,1.5-1.3h1.3l1.2,2.1l1.1-2.1h1.5
					c0.8,0,1.5,0.6,1.5,1.3v3.5C582.2,279.4,581.6,279.9,580.8,279.9z"/>
			</g>
			<path id="Treads_3_" class="st26" d="M609.9,279.5h-35.8c-2.4,0-4.4,2-4.4,4.4s2,4.4,4.4,4.4h35.8c2.4,0,4.4-2,4.4-4.4
				S612.4,279.5,609.9,279.5z M575.4,285.4c-0.8,0-1.5-0.7-1.5-1.5s0.7-1.5,1.5-1.5s1.5,0.7,1.5,1.5S576.2,285.4,575.4,285.4z
				 M583.6,285.5c-0.9,0-1.6-0.7-1.6-1.6s0.7-1.6,1.6-1.6s1.6,0.7,1.6,1.6S584.5,285.5,583.6,285.5z M591.9,285.5
				c-0.9,0-1.6-0.7-1.6-1.6s0.7-1.6,1.6-1.6c0.9,0,1.6,0.7,1.6,1.6S592.8,285.5,591.9,285.5z M600.2,285.5c-0.9,0-1.6-0.7-1.6-1.6
				s0.7-1.6,1.6-1.6s1.6,0.7,1.6,1.6S601.1,285.5,600.2,285.5z M608.3,285.5c-0.9,0-1.6-0.7-1.6-1.6s0.7-1.6,1.6-1.6
				s1.6,0.7,1.6,1.6S609.2,285.5,608.3,285.5z"/>
		</g>
		<g id="Robot_-_Green_2_">
			<g id="Robot_Body_5_">
				<circle class="st29" cx="574.8" cy="200.3" r="1.9"/>
				<path class="st30" d="M572.9,213.6l-1.8,1.9c-0.5-0.5-0.9-1.2-0.9-1.9c0-1.4,1.2-2.6,2.6-2.6c1.4,0,2.6,1.2,2.6,2.6H572.9z"/>
				<path class="st30" d="M611,213.6l-2.6,0.1c0-0.7,0.2-1.5,0.8-2c1-1,2.7-1,3.7,0c1,1,1,2.7,0,3.7L611,213.6z"/>
				<circle class="st29" cx="609" cy="200.5" r="1.9"/>
				<line class="st30" x1="573" y1="211.8" x2="574.4" y2="202.4"/>
				<line class="st30" x1="609.2" y1="202.4" x2="610.8" y2="212.1"/>
				<line class="st30" x1="599.2" y1="203" x2="607.2" y2="201"/>
				<line class="st30" x1="585" y1="203" x2="576.6" y2="200.8"/>
				<line class="st30" x1="581.5" y1="192.9" x2="586.9" y2="198"/>
				<line class="st30" x1="601.8" y1="192.9" x2="596.4" y2="198.6"/>
				<path id="path58241_5_" class="st30" d="M591.9,194.6c-0.6,0-1.1,0.1-1.7,0.2v1.3c-0.7,0.2-1.4,0.5-2,0.8l-0.9-0.9
					c-0.5,0.3-0.9,0.7-1.3,1.1c-0.4,0.4-0.8,0.8-1.1,1.3l0.9,0.9c-0.4,0.6-0.7,1.3-0.8,2h-1.3c-0.1,0.5-0.2,1.1-0.2,1.7
					s0.1,1.1,0.2,1.7h1.3c0.2,0.7,0.5,1.4,0.8,2l-0.9,0.9c0.3,0.5,0.7,0.9,1.1,1.3c0.4,0.4,0.8,0.8,1.3,1.1l0.9-0.9
					c0.6,0.4,1.3,0.7,2,0.8v1.3c0.5,0.1,1.1,0.2,1.7,0.2c0.6,0,1.1-0.1,1.7-0.2v-1.3c0.7-0.2,1.4-0.5,2-0.8l0.9,0.9
					c0.5-0.3,0.9-0.7,1.3-1.1c0.4-0.4,0.8-0.8,1.1-1.3l-0.9-0.9c0.4-0.6,0.7-1.3,0.8-2h1.3c0.1-0.5,0.2-1.1,0.2-1.7
					s-0.1-1.1-0.2-1.7h-1.3c-0.2-0.7-0.5-1.4-0.8-2l0.9-0.9c-0.3-0.5-0.7-0.9-1.1-1.3c-0.4-0.4-0.8-0.8-1.3-1.1l-0.9,0.9
					c-0.6-0.4-1.3-0.7-2-0.8v-1.3C593,194.7,592.4,194.6,591.9,194.6z M591.9,198.8c2.3,0,4.2,1.9,4.2,4.2s-1.9,4.2-4.2,4.2
					c-2.3,0-4.2-1.9-4.2-4.2S589.6,198.8,591.9,198.8z"/>
			</g>
			<g id="Header_5_">
				<rect x="569.1" y="185.7" class="st26" width="3.8" height="5.2"/>
				<rect x="611" y="185.7" class="st26" width="3.8" height="5.2"/>
				<rect x="574.8" y="185.7" class="st26" width="34.2" height="5.2"/>
			</g>
			<g id="Parts_5_">
				<circle class="st26" cx="606" cy="219.2" r="3"/>
				<path class="st26" d="M599.3,222.2h-5.1c-0.8,0-1.5-0.6-1.5-1.3v-3.5c0-0.7,0.7-1.3,1.5-1.3h1.3l1.2,2.1l1.1-2.1h1.5
					c0.8,0,1.5,0.6,1.5,1.3v3.5C600.8,221.6,600.2,222.2,599.3,222.2z"/>
				<path class="st26" d="M589.7,222.2h-4.4c-1,0-1.8-0.7-1.8-1.6v-2.9c0-0.9,0.8-1.6,1.8-1.6h0.8c0.1,0,0.3,0.1,0.3,0.2l0.8,1.4
					c0.1,0.2,0.5,0.2,0.6,0l0.7-1.3c0.1-0.1,0.2-0.2,0.3-0.2h0.9c1,0,1.8,0.7,1.8,1.6v2.9C591.5,221.5,590.7,222.2,589.7,222.2z"/>
				<path class="st26" d="M580.8,222.2h-5.1c-0.8,0-1.5-0.6-1.5-1.3v-3.5c0-0.7,0.7-1.3,1.5-1.3h1.3l1.2,2.1l1.1-2.1h1.5
					c0.8,0,1.5,0.6,1.5,1.3v3.5C582.2,221.6,581.6,222.2,580.8,222.2z"/>
			</g>
			<path id="Treads_5_" class="st26" d="M609.9,221.7h-35.8c-2.4,0-4.4,2-4.4,4.4s2,4.4,4.4,4.4h35.8c2.4,0,4.4-2,4.4-4.4
				S612.4,221.7,609.9,221.7z M575.4,227.6c-0.8,0-1.5-0.7-1.5-1.5s0.7-1.5,1.5-1.5s1.5,0.7,1.5,1.5S576.2,227.6,575.4,227.6z
				 M583.6,227.8c-0.9,0-1.6-0.7-1.6-1.6s0.7-1.6,1.6-1.6s1.6,0.7,1.6,1.6S584.5,227.8,583.6,227.8z M591.9,227.8
				c-0.9,0-1.6-0.7-1.6-1.6s0.7-1.6,1.6-1.6c0.9,0,1.6,0.7,1.6,1.6S592.8,227.8,591.9,227.8z M600.2,227.8c-0.9,0-1.6-0.7-1.6-1.6
				s0.7-1.6,1.6-1.6s1.6,0.7,1.6,1.6S601.1,227.8,600.2,227.8z M608.3,227.8c-0.9,0-1.6-0.7-1.6-1.6s0.7-1.6,1.6-1.6
				s1.6,0.7,1.6,1.6S609.2,227.8,608.3,227.8z"/>
		</g>
	</g>
	<text transform="matrix(1 0 0 1 538.3012 42.177)" class="st31 st15 st14">Component 2</text>
	<g id="Route_Selection">
		<path id="Outline_9_" class="st25" d="M453.1,15.7c0-7.3,5.9-13.2,13.2-13.2h52.7c7.3,0,13.2,5.9,13.2,13.2v73.7
			c0,7.3-5.9,13.2-13.2,13.2h-52.7c-7.3,0-13.2-5.9-13.2-13.2V15.7z"/>
		<g id="Route">
			<polygon class="st32" points="482.1,78 486.4,76.1 482.1,74.3 			"/>
			<polyline class="st32" points="486.4,76.1 479,76.1 479,61.3 486.4,61.3 			"/>
			<polygon class="st32" points="503.2,92.7 498.8,90.8 503.2,88.9 			"/>
			<polyline class="st32" points="498.8,90.8 506.3,90.8 506.3,76 498.8,76 			"/>
			<polygon class="st32" points="503.2,63.9 498.8,62 503.2,60.1 			"/>
			<polyline class="st32" points="498.8,62 506.3,62 506.3,47.2 498.8,47.2 			"/>
			<rect x="488.6" y="44" class="st32" width="8" height="8"/>
			<rect x="488.6" y="58" class="st32" width="8" height="8"/>
			<rect x="488.6" y="72" class="st32" width="8" height="8"/>
			<rect x="488.6" y="86" class="st32" width="8" height="8"/>
		</g>
		<text transform="matrix(1 0 0 1 467.9206 35.9999)" class="st33 st27 st28">Selection</text>
		<text transform="matrix(1 0 0 1 476.5924 18.9999)" class="st33 st27 st28">Route</text>
	</g>
	<g id="Compound_Selection">
		<path class="st25" d="M363.7,15.7c0-7.3,5.9-13.2,13.2-13.2h52.7c7.3,0,13.2,5.9,13.2,13.2v72.7c0,7.3-5.9,13.2-13.2,13.2h-52.7
			c-7.3,0-13.2-5.9-13.2-13.2V15.7z"/>
		<text transform="matrix(1 0 0 1 378.7445 36)" class="st33 st27 st28">Selection</text>
		<text transform="matrix(1 0 0 1 374.0746 19)" class="st33 st27 st28">Compound</text>
		<g id="Grid_1_">
			<rect x="413.4" y="86" class="st32" width="8" height="8"/>
			<rect x="413.4" y="72" class="st32" width="8" height="8"/>
			<rect x="413.4" y="58" class="st32" width="8" height="8"/>
			<rect x="413.4" y="44" class="st32" width="8" height="8"/>
			<rect x="399.4" y="44" class="st32" width="8" height="8"/>
			<rect x="399.4" y="58" class="st32" width="8" height="8"/>
			<rect x="399.4" y="72" class="st32" width="8" height="8"/>
			<rect x="399.4" y="86" class="st32" width="8" height="8"/>
			<rect x="385.4" y="86" class="st32" width="8" height="8"/>
			<rect x="385.4" y="44" class="st32" width="8" height="8"/>
			<rect x="385.4" y="58" class="st32" width="8" height="8"/>
			<rect x="385.4" y="72" class="st32" width="8" height="8"/>
		</g>
	</g>
	<polygon class="st24" points="299.1,142 299.1,123 284.4,123 313.9,104 343.4,123 328.6,123 328.6,142 	"/>
	<g id="Molecular_Design">
		<path id="Outline_8_" class="st25" d="M274.4,15.7c0-7.3,5.9-13.2,13.2-13.2h52.7c7.3,0,13.2,5.9,13.2,13.2v72.7
			c0,7.3-5.9,13.2-13.2,13.2h-52.7c-7.3,0-13.2-5.9-13.2-13.2V15.7z"/>
		<g>
			<defs>
				<rect id="SVGID_1_" x="280.1" y="39" width="67" height="57"/>
			</defs>
			<clipPath id="SVGID_2_">
				<use xlink:href="#SVGID_1_"  style="overflow:visible;"/>
			</clipPath>
			<line class="st34" x1="300.9" y1="59.9" x2="300.9" y2="72.8"/>
			<line class="st34" x1="303.4" y1="61.4" x2="303.4" y2="71.4"/>
			<line class="st34" x1="300.9" y1="72.8" x2="312" y2="79.3"/>
			<line class="st34" x1="312" y1="79.3" x2="323.1" y2="72.8"/>
			<line class="st34" x1="312" y1="76.3" x2="320.6" y2="71.4"/>
			<line class="st34" x1="323.1" y1="72.8" x2="323.1" y2="59.9"/>
			<line class="st34" x1="323.1" y1="59.9" x2="312" y2="53.5"/>
			<line class="st34" x1="320.6" y1="61.4" x2="312" y2="56.5"/>
			<line class="st34" x1="312" y1="53.5" x2="300.9" y2="59.9"/>
			<polygon class="st35" points="332.9,80 332.9,74 333.7,74 336.9,78.7 336.9,74 337.6,74 337.6,80 336.8,80 333.7,75.3 333.7,80 
							"/>
			<line class="st34" x1="323.1" y1="72.8" x2="331.1" y2="75.4"/>
			<line class="st34" x1="338.3" y1="72.8" x2="342.9" y2="66.4"/>
			<line class="st34" x1="342.9" y1="66.4" x2="335.4" y2="56"/>
			<line class="st34" x1="339.8" y1="66.4" x2="334.4" y2="59"/>
			<line class="st34" x1="335.4" y1="56" x2="323.1" y2="59.9"/>
			<path class="st35" d="M337.7,89h1.7c0.4,0,0.6,0,0.8-0.1c0.2-0.1,0.4-0.2,0.5-0.4c0.1-0.2,0.2-0.3,0.2-0.5c0-0.3-0.1-0.5-0.3-0.7
				c-0.2-0.2-0.5-0.3-1-0.3h-1.9V89z M336.9,92.3v-6h2.6c0.5,0,0.9,0.1,1.2,0.2c0.3,0.1,0.5,0.3,0.7,0.6c0.2,0.3,0.2,0.6,0.2,0.9
				c0,0.4-0.1,0.8-0.4,1.1c-0.3,0.3-0.7,0.5-1.3,0.6c0.2,0.1,0.4,0.2,0.5,0.3c0.2,0.2,0.4,0.5,0.7,0.8l1,1.6h-1l-0.8-1.2
				c-0.2-0.4-0.4-0.6-0.6-0.8c-0.1-0.2-0.3-0.3-0.4-0.4c-0.1-0.1-0.2-0.1-0.4-0.2c-0.1,0-0.2,0-0.4,0h-0.9v2.7H336.9z"/>
			<path class="st35" d="M345.6,93.7v0.5h-3c0-0.1,0-0.3,0.1-0.4c0.1-0.2,0.2-0.4,0.4-0.6c0.2-0.2,0.4-0.4,0.7-0.7
				c0.5-0.4,0.8-0.7,1-0.9c0.2-0.2,0.3-0.5,0.3-0.7c0-0.2-0.1-0.4-0.2-0.6c-0.2-0.1-0.4-0.2-0.6-0.2c-0.3,0-0.5,0.1-0.6,0.2
				c-0.2,0.2-0.2,0.4-0.2,0.7l-0.6-0.1c0-0.4,0.2-0.7,0.4-1c0.3-0.2,0.6-0.3,1-0.3c0.4,0,0.8,0.1,1,0.4c0.3,0.2,0.4,0.5,0.4,0.9
				c0,0.2,0,0.4-0.1,0.5c-0.1,0.2-0.2,0.4-0.4,0.5c-0.2,0.2-0.5,0.5-0.8,0.8c-0.3,0.3-0.5,0.5-0.6,0.6c-0.1,0.1-0.2,0.2-0.2,0.3
				H345.6z"/>
			<line class="st34" x1="337" y1="81.9" x2="337.9" y2="84.6"/>
			<path class="st35" d="M283.2,79.2h1.7c0.4,0,0.6,0,0.8-0.1c0.2-0.1,0.4-0.2,0.5-0.4c0.1-0.2,0.2-0.3,0.2-0.5
				c0-0.3-0.1-0.5-0.3-0.7c-0.2-0.2-0.5-0.3-1-0.3h-1.9V79.2z M282.4,82.5v-6h2.6c0.5,0,0.9,0.1,1.2,0.2c0.3,0.1,0.5,0.3,0.7,0.6
				c0.2,0.3,0.2,0.6,0.2,0.9c0,0.4-0.1,0.8-0.4,1.1c-0.3,0.3-0.7,0.5-1.3,0.6c0.2,0.1,0.4,0.2,0.5,0.3c0.2,0.2,0.4,0.5,0.7,0.8
				l1,1.6h-1l-0.8-1.2c-0.2-0.4-0.4-0.6-0.6-0.8c-0.1-0.2-0.3-0.3-0.4-0.4c-0.1-0.1-0.2-0.1-0.4-0.2c-0.1,0-0.2,0-0.4,0h-0.9v2.7
				H282.4z"/>
			<path class="st35" d="M288.2,83.3l0.5-0.1c0.1,0.3,0.2,0.5,0.3,0.7c0.2,0.1,0.3,0.2,0.6,0.2c0.3,0,0.5-0.1,0.7-0.3
				c0.2-0.2,0.3-0.4,0.3-0.7c0-0.3-0.1-0.5-0.2-0.6c-0.2-0.2-0.4-0.2-0.6-0.2c-0.1,0-0.2,0-0.4,0.1l0.1-0.5c0,0,0.1,0,0.1,0
				c0.2,0,0.4-0.1,0.6-0.2c0.2-0.1,0.3-0.3,0.3-0.6c0-0.2-0.1-0.4-0.2-0.5c-0.1-0.1-0.3-0.2-0.5-0.2c-0.2,0-0.4,0.1-0.5,0.2
				c-0.1,0.1-0.2,0.3-0.3,0.6l-0.5-0.1c0.1-0.4,0.2-0.7,0.5-0.9c0.2-0.2,0.5-0.3,0.9-0.3c0.2,0,0.5,0.1,0.7,0.2
				c0.2,0.1,0.4,0.2,0.5,0.4c0.1,0.2,0.2,0.4,0.2,0.6c0,0.2-0.1,0.4-0.2,0.5c-0.1,0.2-0.3,0.3-0.5,0.4c0.3,0.1,0.5,0.2,0.6,0.4
				s0.2,0.4,0.2,0.7c0,0.4-0.1,0.7-0.4,1c-0.3,0.3-0.6,0.4-1.1,0.4c-0.4,0-0.7-0.1-1-0.4C288.4,83.9,288.2,83.6,288.2,83.3z"/>
			<line class="st34" x1="300.9" y1="72.8" x2="291.3" y2="78.4"/>
			<path class="st35" d="M337.7,43.5h1.7c0.4,0,0.6,0,0.8-0.1c0.2-0.1,0.4-0.2,0.5-0.4c0.1-0.2,0.2-0.3,0.2-0.5
				c0-0.3-0.1-0.5-0.3-0.7c-0.2-0.2-0.5-0.3-1-0.3h-1.9V43.5z M336.9,46.9v-6h2.6c0.5,0,0.9,0.1,1.2,0.2c0.3,0.1,0.5,0.3,0.7,0.6
				c0.2,0.3,0.2,0.6,0.2,0.9c0,0.4-0.1,0.8-0.4,1.1s-0.7,0.5-1.3,0.6c0.2,0.1,0.4,0.2,0.5,0.3c0.2,0.2,0.4,0.5,0.7,0.8l1,1.6h-1
				l-0.8-1.2c-0.2-0.4-0.4-0.6-0.6-0.8c-0.1-0.2-0.3-0.3-0.4-0.4c-0.1-0.1-0.2-0.1-0.4-0.2c-0.1,0-0.2,0-0.4,0h-0.9v2.7H336.9z"/>
			<path class="st35" d="M344.8,48.8h-0.5v-3.5c-0.1,0.1-0.3,0.3-0.5,0.4c-0.2,0.1-0.4,0.2-0.6,0.3v-0.5c0.3-0.1,0.6-0.3,0.8-0.5
				c0.2-0.2,0.4-0.4,0.5-0.6h0.4V48.8z"/>
			<line class="st34" x1="335.4" y1="56" x2="337.7" y2="48.8"/>
		</g>
		<text transform="matrix(1 0 0 1 295.9001 36)" class="st33 st27 st28">Design</text>
		<text transform="matrix(1 0 0 1 288.3875 19)" class="st33 st27 st28">Molecular</text>
	</g>
</g>
<g id="Component_3">
	<path id="Component_Outline_1_" class="st36" d="M185.6,161.9c0-10.9,9.1-19.8,20.3-19.8h298.7c11.2,0,20.3,8.8,20.3,19.8v79
		c0,10.9-9.1,19.8-20.3,19.8H205.9c-11.2,0-20.3-8.8-20.3-19.8V161.9z"/>
	<text transform="matrix(1 0 0 1 206.3575 133.9913)" class="st37 st15 st14">Component 3</text>
	<text transform="matrix(1 0 0 1 198.462 158.2413)" class="st27 st28">AI/Machine Learning Models</text>
	<path id="Arrow" class="st22" d="M378.8,194.8l4.6,2.3l-4.6,2.3V194.8z M360.8,196.8l18.8,0v0.8l-18.8,0V196.8z"/>
	<path id="Filter_1_" class="st38" d="M439.4,188.4H451l-3.9,7.3c-0.1,2.4,0.2,5.1,0.1,7.5l-3.5,2.2c-0.3-2.6-0.3-7.2-0.6-9.8
		L439.4,188.4z"/>
	<path id="Arrow_1_" class="st22" d="M451.6,194.8l4.6,2.3l-4.6,2.3V194.8z M433.6,196.8l18.8,0v0.8l-18.8,0V196.8z"/>
	<path id="Filter" class="st38" d="M366.2,188.6h11.6l-3.9,7.3c-0.1,2.4,0.2,5.1,0.1,7.5l-3.5,2.2c-0.3-2.6-0.3-7.2-0.6-9.8
		L366.2,188.6z"/>
	<g id="Lists_1_1_">
		<g id="List_5_">
			<path id="Outline_7_" class="st39" d="M477.1,173.8h21.7V202c-7.8-2.4-13.4,3.9-21.7,0V173.8z"/>
			<circle class="st40" cx="480.4" cy="182.8" r="0.9"/>
			<line class="st41" x1="484.4" y1="182.8" x2="496.4" y2="182.8"/>
			<circle class="st40" cx="480.4" cy="177.8" r="0.9"/>
			<line class="st41" x1="484.4" y1="177.8" x2="496.4" y2="177.8"/>
			<circle class="st40" cx="480.4" cy="187.8" r="0.9"/>
			<line class="st41" x1="484.4" y1="187.8" x2="496.4" y2="187.8"/>
			<circle class="st40" cx="480.4" cy="192.8" r="0.9"/>
			<line class="st41" x1="484.4" y1="192.8" x2="496.4" y2="192.8"/>
			<circle class="st40" cx="480.4" cy="197.8" r="0.9"/>
			<line class="st41" x1="484.4" y1="197.8" x2="496.4" y2="197.8"/>
		</g>
		<g id="List_4_">
			<path id="Outline_6_" class="st39" d="M472.2,167.8h21.7V196c-7.8-2.4-13.4,3.9-21.7,0V167.8z"/>
			<circle class="st40" cx="475.5" cy="176.8" r="0.9"/>
			<line class="st41" x1="479.5" y1="176.8" x2="491.5" y2="176.8"/>
			<circle class="st40" cx="475.5" cy="171.8" r="0.9"/>
			<line class="st41" x1="479.5" y1="171.8" x2="491.5" y2="171.8"/>
			<circle class="st40" cx="475.5" cy="181.8" r="0.9"/>
			<line class="st41" x1="479.5" y1="181.8" x2="491.5" y2="181.8"/>
			<circle class="st40" cx="475.5" cy="186.8" r="0.9"/>
			<line class="st41" x1="479.5" y1="186.8" x2="491.5" y2="186.8"/>
			<circle class="st40" cx="475.5" cy="191.8" r="0.9"/>
			<line class="st41" x1="479.5" y1="191.8" x2="491.5" y2="191.8"/>
		</g>
		<g id="List_3_">
			<path id="Outline_5_" class="st39" d="M467.6,161.6h21.7v28.1c-7.8-2.4-13.4,3.9-21.7,0V161.6z"/>
			<circle class="st40" cx="470.9" cy="170.5" r="0.9"/>
			<line class="st41" x1="475" y1="170.5" x2="486.9" y2="170.5"/>
			<circle class="st40" cx="470.9" cy="165.5" r="0.9"/>
			<line class="st41" x1="475" y1="165.5" x2="486.9" y2="165.5"/>
			<circle class="st40" cx="470.9" cy="175.5" r="0.9"/>
			<line class="st41" x1="475" y1="175.5" x2="486.9" y2="175.5"/>
			<circle class="st40" cx="470.9" cy="180.5" r="0.9"/>
			<line class="st41" x1="475" y1="180.5" x2="486.9" y2="180.5"/>
			<circle class="st40" cx="470.9" cy="185.5" r="0.9"/>
			<line class="st41" x1="475" y1="185.5" x2="486.9" y2="185.5"/>
		</g>
	</g>
	<g id="Lists_1">
		<g id="List_2_">
			<path id="Outline_4_" class="st39" d="M401.7,173.8h21.7V202c-7.8-2.4-13.4,3.9-21.7,0V173.8z"/>
			<circle class="st40" cx="405" cy="182.8" r="0.9"/>
			<line class="st41" x1="409" y1="182.8" x2="421" y2="182.8"/>
			<circle class="st40" cx="405" cy="177.8" r="0.9"/>
			<line class="st41" x1="409" y1="177.8" x2="421" y2="177.8"/>
			<circle class="st40" cx="405" cy="187.8" r="0.9"/>
			<line class="st41" x1="409" y1="187.8" x2="421" y2="187.8"/>
			<circle class="st40" cx="405" cy="192.8" r="0.9"/>
			<line class="st41" x1="409" y1="192.8" x2="421" y2="192.8"/>
			<circle class="st40" cx="405" cy="197.8" r="0.9"/>
			<line class="st41" x1="409" y1="197.8" x2="421" y2="197.8"/>
		</g>
		<g id="List_1_">
			<path id="Outline_3_" class="st39" d="M396.8,167.8h21.7V196c-7.8-2.4-13.4,3.9-21.7,0V167.8z"/>
			<circle class="st40" cx="400.1" cy="176.8" r="0.9"/>
			<line class="st41" x1="404.1" y1="176.8" x2="416.1" y2="176.8"/>
			<circle class="st40" cx="400.1" cy="171.8" r="0.9"/>
			<line class="st41" x1="404.1" y1="171.8" x2="416.1" y2="171.8"/>
			<circle class="st40" cx="400.1" cy="181.8" r="0.9"/>
			<line class="st41" x1="404.1" y1="181.8" x2="416.1" y2="181.8"/>
			<circle class="st40" cx="400.1" cy="186.8" r="0.9"/>
			<line class="st41" x1="404.1" y1="186.8" x2="416.1" y2="186.8"/>
			<circle class="st40" cx="400.1" cy="191.8" r="0.9"/>
			<line class="st41" x1="404.1" y1="191.8" x2="416.1" y2="191.8"/>
		</g>
		<g id="List">
			<path id="Outline_2_" class="st39" d="M392.2,161.6h21.7v28.1c-7.8-2.4-13.4,3.9-21.7,0V161.6z"/>
			<circle class="st40" cx="395.5" cy="170.5" r="0.9"/>
			<line class="st41" x1="399.6" y1="170.5" x2="411.5" y2="170.5"/>
			<circle class="st40" cx="395.5" cy="165.5" r="0.9"/>
			<line class="st41" x1="399.6" y1="165.5" x2="411.5" y2="165.5"/>
			<circle class="st40" cx="395.5" cy="175.5" r="0.9"/>
			<line class="st41" x1="399.6" y1="175.5" x2="411.5" y2="175.5"/>
			<circle class="st40" cx="395.5" cy="180.5" r="0.9"/>
			<line class="st41" x1="399.6" y1="180.5" x2="411.5" y2="180.5"/>
			<circle class="st40" cx="395.5" cy="185.5" r="0.9"/>
			<line class="st41" x1="399.6" y1="185.5" x2="411.5" y2="185.5"/>
		</g>
	</g>
	<g id="Graph_1_">
		<polyline class="st42" points="398.9,232.9 388.9,226 398.9,219 		"/>
		<polyline class="st42" points="416.9,225.3 406.9,218.5 416.9,211.5 		"/>
		<polyline class="st42" points="416.9,240.2 406.9,233.3 416.9,226.3 		"/>
		<circle class="st43" cx="384.9" cy="226" r="4"/>
		<circle class="st43" cx="402.8" cy="219" r="4"/>
		<circle class="st43" cx="402.8" cy="233.3" r="4"/>
		<circle class="st43" cx="420.7" cy="211.5" r="4"/>
		<circle class="st43" cx="420.7" cy="225.8" r="4"/>
		<circle class="st43" cx="420.9" cy="240.2" r="4"/>
	</g>
	<g id="Graph">
		<polyline class="st42" points="479,233.6 469,226.7 479,219.7 		"/>
		<polyline class="st42" points="497.1,226.1 487.1,219.2 497.1,212.2 		"/>
		<polyline class="st42" points="497.1,240.9 487.1,234 497.1,227 		"/>
		<circle class="st43" cx="465.1" cy="226.7" r="4"/>
		<circle class="st43" cx="483" cy="219.7" r="4"/>
		<circle class="st43" cx="483" cy="234" r="4"/>
		<circle class="st43" cx="500.9" cy="212.2" r="4"/>
		<circle class="st43" cx="500.9" cy="226.5" r="4"/>
		<circle class="st43" cx="501" cy="240.9" r="4"/>
	</g>
	<g id="Opiod_OUD">
		<path class="st44" d="M232.2,241.2c-0.3,0-0.7,0.1-1.2-0.1c-8.6-2.1-16.6-41-18.1-48.5c-0.3-1.4-0.8-3.7-1.5-3.5
			c-2.3,0.7-5.8,25.8-6.8,49l-0.1,3.3"/>
		<path class="st44" d="M260,241.2c-0.3,0-0.7,0.1-1.2-0.1c-8.6-2.1-16.6-41-18.1-48.5c-0.3-1.4-0.8-3.7-1.5-3.5
			c-2.3,0.7-5.8,25.8-6.8,49l-0.1,3.3"/>
		<g id="Toxicity_Line_1_">
			<g>
				<line class="st45" x1="262.9" y1="208.3" x2="260.9" y2="208.3"/>
				<line class="st46" x1="256.7" y1="208.3" x2="207.9" y2="208.3"/>
				<line class="st45" x1="205.8" y1="208.3" x2="203.8" y2="208.3"/>
			</g>
		</g>
		<g id="Efficacy_Line_1_">
			<g>
				<line class="st47" x1="262.9" y1="230.8" x2="260.9" y2="230.8"/>
				<line class="st48" x1="256.7" y1="230.8" x2="207.9" y2="230.8"/>
				<line class="st47" x1="205.8" y1="230.8" x2="203.8" y2="230.8"/>
			</g>
		</g>
		<text transform="matrix(1 0 0 1 224.3376 253.3477)" class="st27 st49">Time</text>
		<text transform="matrix(0 -1 1 0 200.4968 243.42)" class="st27 st50">Pain      </text>
		<text transform="matrix(0 -1 1 0 200.446 226.546)" class="st27 st50">Normal       </text>
		<text transform="matrix(0 -1 1 0 200.3957 204.2862)" class="st27 st50"> Reward</text>
		<rect id="Outline_1_" x="203.8" y="184.4" class="st7" width="59.1" height="62.3"/>
	</g>
	<text id="Opioids_with_OUD" transform="matrix(1 0 0 1 196.7685 174.2911)" class="st51 st52">Opioids with OUD</text>
	<g id="Ideal_Opioid">
		<path id="Profile" class="st44" d="M340,226.3c-0.6,0-1.5,0-2.6-0.1c-18.1-1.1-37.7-9.2-41.4-10.8c-0.7-0.3-1.9-0.8-3.3-0.8
			c-4.7,0-10.1,4.5-10.3,8.9l0,0.6"/>
		<g id="Toxicity_Line">
			<g>
				<line class="st45" x1="340.3" y1="208.3" x2="338.3" y2="208.3"/>
				<line class="st53" x1="334.1" y1="208.3" x2="285.9" y2="208.3"/>
				<line class="st45" x1="283.8" y1="208.3" x2="281.8" y2="208.3"/>
			</g>
		</g>
		<g id="Efficacy_Line">
			<g>
				<line class="st54" x1="340.3" y1="230.6" x2="338.3" y2="230.6"/>
				<line class="st55" x1="334.1" y1="230.6" x2="285.9" y2="230.6"/>
				<line class="st54" x1="283.8" y1="230.6" x2="281.8" y2="230.6"/>
			</g>
		</g>
		<text transform="matrix(1 0 0 1 302.1399 252.837)" class="st9 st56">Time</text>
		<text transform="matrix(0 -1 1 0 278.8781 242.9522)" class="st9 st57">Pain      </text>
		<text transform="matrix(0 -1 1 0 278.8274 226.2403)" class="st9 st57">Normal       </text>
		<text transform="matrix(0 -1 1 0 278.7776 204.1924)" class="st9 st57"> Reward</text>
		<rect id="Outline" x="281.8" y="184.5" class="st7" width="58.6" height="61.7"/>
	</g>
	<text id="Ideal_Opioid_1_" transform="matrix(1 0 0 1 285.8222 174.2911)" class="st51 st52">Ideal Opioid</text>
</g>
<g id="Component_4_1_">
	<g id="Component_4" class="st16">
		<path class="st58" d="M223.6,299.7c0-7,5.7-12.7,12.7-12.7h183.9c7,0,12.7,5.7,12.7,12.7v50.6c0,7-5.7,12.7-12.7,12.7H236.2
			c-7,0-12.7-5.7-12.7-12.7V299.7z"/>
	</g>
	<path id="Component_Outline_2_" class="st59" d="M223.6,299.7c0-7,5.7-12.7,12.7-12.7h183.9c7,0,12.7,5.7,12.7,12.7v50.6
		c0,7-5.7,12.7-12.7,12.7H236.2c-7,0-12.7-5.7-12.7-12.7V299.7z"/>
	<text transform="matrix(1 0 0 1 310.3536 301.3917)" class="st60 st27 st28">Testing</text>
	<text transform="matrix(1 0 0 1 225.8634 280.4659)" class="st60 st15 st14">Component 4</text>
	<g id="Robot_-_Orange_1_">
		<g id="Robot_Body_1_">
			<circle class="st61" cx="371.7" cy="326.4" r="1.9"/>
			<path class="st61" d="M369.9,339.6l-1.8,1.9c-0.5-0.5-0.9-1.2-0.9-1.9c0-1.4,1.2-2.6,2.6-2.6s2.6,1.2,2.6,2.6H369.9z"/>
			<path class="st61" d="M407.9,339.6l-2.6,0.1c0-0.7,0.2-1.5,0.8-2c1-1,2.7-1,3.7,0c1,1,1,2.7,0,3.7L407.9,339.6z"/>
			<circle class="st61" cx="405.9" cy="326.6" r="1.9"/>
			<line class="st61" x1="370" y1="337.8" x2="371.4" y2="328.4"/>
			<line class="st61" x1="406.2" y1="328.4" x2="407.8" y2="338.1"/>
			<line class="st61" x1="396.1" y1="329" x2="404.1" y2="327"/>
			<line class="st61" x1="382" y1="329" x2="373.5" y2="326.9"/>
			<line class="st61" x1="378.4" y1="318.9" x2="383.9" y2="324.1"/>
			<line class="st61" x1="398.8" y1="319" x2="393.4" y2="324.7"/>
			<path id="path58241_1_" class="st61" d="M388.8,320.7c-0.6,0-1.1,0.1-1.7,0.2v1.3c-0.7,0.2-1.4,0.5-2,0.8l-0.9-0.9
				c-0.5,0.3-0.9,0.7-1.3,1.1c-0.4,0.4-0.8,0.8-1.1,1.3l0.9,0.9c-0.4,0.6-0.7,1.3-0.8,2h-1.3c-0.1,0.5-0.2,1.1-0.2,1.7
				s0.1,1.1,0.2,1.7h1.3c0.2,0.7,0.5,1.4,0.8,2l-0.9,0.9c0.3,0.5,0.7,0.9,1.1,1.3c0.4,0.4,0.8,0.8,1.3,1.1l0.9-0.9
				c0.6,0.4,1.3,0.7,2,0.8v1.3c0.5,0.1,1.1,0.2,1.7,0.2s1.1-0.1,1.7-0.2v-1.3c0.7-0.2,1.4-0.5,2-0.8l0.9,0.9
				c0.5-0.3,0.9-0.7,1.3-1.1c0.4-0.4,0.8-0.8,1.1-1.3l-0.9-0.9c0.4-0.6,0.7-1.3,0.8-2h1.3c0.1-0.5,0.2-1.1,0.2-1.7s-0.1-1.1-0.2-1.7
				h-1.3c-0.2-0.7-0.5-1.4-0.8-2l0.9-0.9c-0.3-0.5-0.7-0.9-1.1-1.3c-0.4-0.4-0.8-0.8-1.3-1.1l-0.9,0.9c-0.6-0.4-1.3-0.7-2-0.8v-1.3
				C390,320.7,389.4,320.7,388.8,320.7z M388.8,324.8c2.3,0,4.2,1.9,4.2,4.2c0,2.3-1.9,4.2-4.2,4.2s-4.2-1.9-4.2-4.2
				C384.7,326.7,386.5,324.8,388.8,324.8z"/>
		</g>
		<g id="Header_1_">
			<rect x="366" y="311.7" class="st60" width="3.8" height="5.2"/>
			<rect x="407.9" y="311.7" class="st60" width="3.8" height="5.2"/>
			<rect x="371.7" y="311.7" class="st60" width="34.2" height="5.2"/>
		</g>
		<g id="Parts_1_">
			<circle class="st60" cx="402.9" cy="345.3" r="3"/>
			<path class="st60" d="M396.3,348.3h-5.1c-0.8,0-1.5-0.6-1.5-1.3v-3.5c0-0.7,0.7-1.3,1.5-1.3h1.3l1.2,2.1l1.1-2.1h1.5
				c0.8,0,1.5,0.6,1.5,1.3v3.5C397.8,347.7,397.1,348.3,396.3,348.3z"/>
			<path class="st60" d="M386.7,348.3h-4.4c-1,0-1.8-0.7-1.8-1.6v-2.9c0-0.9,0.8-1.6,1.8-1.6h0.8c0.1,0,0.3,0.1,0.3,0.2l0.8,1.4
				c0.1,0.2,0.5,0.2,0.6,0l0.7-1.3c0.1-0.1,0.2-0.2,0.3-0.2h0.9c1,0,1.8,0.7,1.8,1.6v2.9C388.5,347.6,387.7,348.3,386.7,348.3z"/>
			<path class="st60" d="M377.7,348.3h-5.1c-0.8,0-1.5-0.6-1.5-1.3v-3.5c0-0.7,0.7-1.3,1.5-1.3h1.3l1.2,2.1l1.1-2.1h1.5
				c0.8,0,1.5,0.6,1.5,1.3v3.5C379.2,347.7,378.5,348.3,377.7,348.3z"/>
		</g>
		<path id="Treads_1_" class="st60" d="M406.9,347.8h-35.8c-2.4,0-4.4,2-4.4,4.4s2,4.4,4.4,4.4h35.8c2.4,0,4.4-2,4.4-4.4
			S409.4,347.8,406.9,347.8z M372.4,353.7c-0.8,0-1.5-0.7-1.5-1.5s0.7-1.5,1.5-1.5s1.5,0.7,1.5,1.5S373.2,353.7,372.4,353.7z
			 M380.6,353.9c-0.9,0-1.6-0.7-1.6-1.6s0.7-1.6,1.6-1.6s1.6,0.7,1.6,1.6S381.5,353.9,380.6,353.9z M388.8,353.9
			c-0.9,0-1.6-0.7-1.6-1.6s0.7-1.6,1.6-1.6c0.9,0,1.6,0.7,1.6,1.6S389.7,353.9,388.8,353.9z M397.1,353.9c-0.9,0-1.6-0.7-1.6-1.6
			s0.7-1.6,1.6-1.6s1.6,0.7,1.6,1.6S398.1,353.9,397.1,353.9z M405.3,353.9c-0.9,0-1.6-0.7-1.6-1.6s0.7-1.6,1.6-1.6s1.6,0.7,1.6,1.6
			S406.2,353.9,405.3,353.9z"/>
	</g>
	<g id="Robot_-_Orange_3_">
		<g id="Robot_Body_6_">
			<circle class="st61" cx="311.5" cy="326.4" r="1.9"/>
			<path class="st61" d="M309.6,339.6l-1.8,1.9c-0.5-0.5-0.9-1.2-0.9-1.9c0-1.4,1.2-2.6,2.6-2.6s2.6,1.2,2.6,2.6H309.6z"/>
			<path class="st61" d="M347.7,339.6l-2.6,0.1c0-0.7,0.2-1.5,0.8-2c1-1,2.7-1,3.7,0c1,1,1,2.7,0,3.7L347.7,339.6z"/>
			<circle class="st61" cx="345.7" cy="326.6" r="1.9"/>
			<line class="st61" x1="309.7" y1="337.8" x2="311.1" y2="328.4"/>
			<line class="st61" x1="345.9" y1="328.4" x2="347.5" y2="338.1"/>
			<line class="st61" x1="335.9" y1="329" x2="343.9" y2="327"/>
			<line class="st61" x1="321.7" y1="329" x2="313.3" y2="326.9"/>
			<line class="st61" x1="318.2" y1="318.9" x2="323.6" y2="324.1"/>
			<line class="st61" x1="338.5" y1="319" x2="333.1" y2="324.7"/>
			<path id="path58241_6_" class="st61" d="M328.6,320.7c-0.6,0-1.1,0.1-1.7,0.2v1.3c-0.7,0.2-1.4,0.5-2,0.8l-0.9-0.9
				c-0.5,0.3-0.9,0.7-1.3,1.1c-0.4,0.4-0.8,0.8-1.1,1.3l0.9,0.9c-0.4,0.6-0.7,1.3-0.8,2h-1.3c-0.1,0.5-0.2,1.1-0.2,1.7
				s0.1,1.1,0.2,1.7h1.3c0.2,0.7,0.5,1.4,0.8,2l-0.9,0.9c0.3,0.5,0.7,0.9,1.1,1.3c0.4,0.4,0.8,0.8,1.3,1.1l0.9-0.9
				c0.6,0.4,1.3,0.7,2,0.8v1.3c0.5,0.1,1.1,0.2,1.7,0.2s1.1-0.1,1.7-0.2v-1.3c0.7-0.2,1.4-0.5,2-0.8l0.9,0.9
				c0.5-0.3,0.9-0.7,1.3-1.1c0.4-0.4,0.8-0.8,1.1-1.3l-0.9-0.9c0.4-0.6,0.7-1.3,0.8-2h1.3c0.1-0.5,0.2-1.1,0.2-1.7s-0.1-1.1-0.2-1.7
				h-1.3c-0.2-0.7-0.5-1.4-0.8-2l0.9-0.9c-0.3-0.5-0.7-0.9-1.1-1.3c-0.4-0.4-0.8-0.8-1.3-1.1l-0.9,0.9c-0.6-0.4-1.3-0.7-2-0.8v-1.3
				C329.7,320.7,329.1,320.7,328.6,320.7z M328.6,324.8c2.3,0,4.2,1.9,4.2,4.2c0,2.3-1.9,4.2-4.2,4.2c-2.3,0-4.2-1.9-4.2-4.2
				C324.4,326.7,326.2,324.8,328.6,324.8z"/>
		</g>
		<g id="Header_6_">
			<rect x="305.8" y="311.7" class="st60" width="3.8" height="5.2"/>
			<rect x="347.7" y="311.7" class="st60" width="3.8" height="5.2"/>
			<rect x="311.5" y="311.7" class="st60" width="34.2" height="5.2"/>
		</g>
		<g id="Parts_6_">
			<circle class="st60" cx="342.7" cy="345.3" r="3"/>
			<path class="st60" d="M336,348.3H331c-0.8,0-1.5-0.6-1.5-1.3v-3.5c0-0.7,0.7-1.3,1.5-1.3h1.3l1.2,2.1l1.1-2.1h1.5
				c0.8,0,1.5,0.6,1.5,1.3v3.5C337.5,347.7,336.8,348.3,336,348.3z"/>
			<path class="st60" d="M326.4,348.3H322c-1,0-1.8-0.7-1.8-1.6v-2.9c0-0.9,0.8-1.6,1.8-1.6h0.8c0.1,0,0.3,0.1,0.3,0.2l0.8,1.4
				c0.1,0.2,0.5,0.2,0.6,0l0.7-1.3c0.1-0.1,0.2-0.2,0.3-0.2h0.9c1,0,1.8,0.7,1.8,1.6v2.9C328.2,347.6,327.4,348.3,326.4,348.3z"/>
			<path class="st60" d="M317.5,348.3h-5.1c-0.8,0-1.5-0.6-1.5-1.3v-3.5c0-0.7,0.7-1.3,1.5-1.3h1.3l1.2,2.1l1.1-2.1h1.5
				c0.8,0,1.5,0.6,1.5,1.3v3.5C318.9,347.7,318.3,348.3,317.5,348.3z"/>
		</g>
		<path id="Treads_6_" class="st60" d="M346.6,347.8h-35.8c-2.4,0-4.4,2-4.4,4.4s2,4.4,4.4,4.4h35.8c2.4,0,4.4-2,4.4-4.4
			S349.1,347.8,346.6,347.8z M312.1,353.7c-0.8,0-1.5-0.7-1.5-1.5s0.7-1.5,1.5-1.5s1.5,0.7,1.5,1.5S312.9,353.7,312.1,353.7z
			 M320.3,353.9c-0.9,0-1.6-0.7-1.6-1.6s0.7-1.6,1.6-1.6s1.6,0.7,1.6,1.6S321.2,353.9,320.3,353.9z M328.6,353.9
			c-0.9,0-1.6-0.7-1.6-1.6s0.7-1.6,1.6-1.6c0.9,0,1.6,0.7,1.6,1.6S329.5,353.9,328.6,353.9z M336.9,353.9c-0.9,0-1.6-0.7-1.6-1.6
			s0.7-1.6,1.6-1.6s1.6,0.7,1.6,1.6S337.8,353.9,336.9,353.9z M345,353.9c-0.9,0-1.6-0.7-1.6-1.6s0.7-1.6,1.6-1.6s1.6,0.7,1.6,1.6
			S345.9,353.9,345,353.9z"/>
	</g>
	<g id="Robot_-_Orange">
		<g id="Robot_Body_2_">
			<circle class="st61" cx="251.2" cy="326.4" r="1.9"/>
			<path class="st61" d="M249.3,339.6l-1.8,1.9c-0.5-0.5-0.9-1.2-0.9-1.9c0-1.4,1.2-2.6,2.6-2.6s2.6,1.2,2.6,2.6H249.3z"/>
			<path class="st61" d="M287.4,339.6l-2.6,0.1c0-0.7,0.2-1.5,0.8-2c1-1,2.7-1,3.7,0c1,1,1,2.7,0,3.7L287.4,339.6z"/>
			<circle class="st61" cx="285.4" cy="326.6" r="1.9"/>
			<line class="st61" x1="249.5" y1="337.8" x2="250.8" y2="328.4"/>
			<line class="st61" x1="285.7" y1="328.4" x2="287.2" y2="338.1"/>
			<line class="st61" x1="275.6" y1="329" x2="283.6" y2="327"/>
			<line class="st61" x1="261.4" y1="329" x2="253" y2="326.9"/>
			<line class="st61" x1="257.9" y1="318.9" x2="263.3" y2="324.1"/>
			<line class="st61" x1="278.2" y1="319" x2="272.9" y2="324.7"/>
			<path id="path58241_2_" class="st61" d="M268.3,320.7c-0.6,0-1.1,0.1-1.7,0.2v1.3c-0.7,0.2-1.4,0.5-2,0.8l-0.9-0.9
				c-0.5,0.3-0.9,0.7-1.3,1.1c-0.4,0.4-0.8,0.8-1.1,1.3l0.9,0.9c-0.4,0.6-0.7,1.3-0.8,2h-1.3c-0.1,0.5-0.2,1.1-0.2,1.7
				s0.1,1.1,0.2,1.7h1.3c0.2,0.7,0.5,1.4,0.8,2l-0.9,0.9c0.3,0.5,0.7,0.9,1.1,1.3c0.4,0.4,0.8,0.8,1.3,1.1l0.9-0.9
				c0.6,0.4,1.3,0.7,2,0.8v1.3c0.5,0.1,1.1,0.2,1.7,0.2c0.6,0,1.1-0.1,1.7-0.2v-1.3c0.7-0.2,1.4-0.5,2-0.8l0.9,0.9
				c0.5-0.3,0.9-0.7,1.3-1.1c0.4-0.4,0.8-0.8,1.1-1.3l-0.9-0.9c0.4-0.6,0.7-1.3,0.8-2h1.3c0.1-0.5,0.2-1.1,0.2-1.7s-0.1-1.1-0.2-1.7
				h-1.3c-0.2-0.7-0.5-1.4-0.8-2l0.9-0.9c-0.3-0.5-0.7-0.9-1.1-1.3c-0.4-0.4-0.8-0.8-1.3-1.1L272,323c-0.6-0.4-1.3-0.7-2-0.8v-1.3
				C269.4,320.7,268.9,320.7,268.3,320.7z M268.3,324.8c2.3,0,4.2,1.9,4.2,4.2c0,2.3-1.9,4.2-4.2,4.2c-2.3,0-4.2-1.9-4.2-4.2
				C264.1,326.7,266,324.8,268.3,324.8z"/>
		</g>
		<g id="Header_2_">
			<rect x="245.5" y="311.7" class="st60" width="3.8" height="5.2"/>
			<rect x="287.4" y="311.7" class="st60" width="3.8" height="5.2"/>
			<rect x="251.2" y="311.7" class="st60" width="34.2" height="5.2"/>
		</g>
		<g id="Parts_2_">
			<circle class="st60" cx="282.4" cy="345.3" r="3"/>
			<path class="st60" d="M275.8,348.3h-5.1c-0.8,0-1.5-0.6-1.5-1.3v-3.5c0-0.7,0.7-1.3,1.5-1.3h1.3l1.2,2.1l1.1-2.1h1.5
				c0.8,0,1.5,0.6,1.5,1.3v3.5C277.2,347.7,276.6,348.3,275.8,348.3z"/>
			<path class="st60" d="M266.1,348.3h-4.4c-1,0-1.8-0.7-1.8-1.6v-2.9c0-0.9,0.8-1.6,1.8-1.6h0.8c0.1,0,0.3,0.1,0.3,0.2l0.8,1.4
				c0.1,0.2,0.5,0.2,0.6,0l0.7-1.3c0.1-0.1,0.2-0.2,0.3-0.2h0.9c1,0,1.8,0.7,1.8,1.6v2.9C267.9,347.6,267.1,348.3,266.1,348.3z"/>
			<path class="st60" d="M257.2,348.3h-5.1c-0.8,0-1.5-0.6-1.5-1.3v-3.5c0-0.7,0.7-1.3,1.5-1.3h1.3l1.2,2.1l1.1-2.1h1.5
				c0.8,0,1.5,0.6,1.5,1.3v3.5C258.6,347.7,258,348.3,257.2,348.3z"/>
		</g>
		<path id="Treads_2_" class="st60" d="M286.4,347.8h-35.8c-2.4,0-4.4,2-4.4,4.4s2,4.4,4.4,4.4h35.8c2.4,0,4.4-2,4.4-4.4
			S288.8,347.8,286.4,347.8z M251.8,353.7c-0.8,0-1.5-0.7-1.5-1.5s0.7-1.5,1.5-1.5s1.5,0.7,1.5,1.5S252.7,353.7,251.8,353.7z
			 M260.1,353.9c-0.9,0-1.6-0.7-1.6-1.6s0.7-1.6,1.6-1.6s1.6,0.7,1.6,1.6S261,353.9,260.1,353.9z M268.3,353.9
			c-0.9,0-1.6-0.7-1.6-1.6s0.7-1.6,1.6-1.6c0.9,0,1.6,0.7,1.6,1.6S269.2,353.9,268.3,353.9z M276.6,353.9c-0.9,0-1.6-0.7-1.6-1.6
			s0.7-1.6,1.6-1.6s1.6,0.7,1.6,1.6S277.5,353.9,276.6,353.9z M284.7,353.9c-0.9,0-1.6-0.7-1.6-1.6s0.7-1.6,1.6-1.6s1.6,0.7,1.6,1.6
			S285.7,353.9,284.7,353.9z"/>
	</g>
</g>
</svg>
