<?xml version="1.0" encoding="utf-8"?>
<!-- Generator: Adobe Illustrator 25.0.0, SVG Export Plug-In . SVG Version: 6.00 Build 0)  -->
<svg version="1.1" id="Layer_1" xmlns="http://www.w3.org/2000/svg" xmlns:xlink="http://www.w3.org/1999/xlink" x="0px" y="0px"
	 viewBox="0 0 840 420" style="enable-background:new 0 0 840 420;" xml:space="preserve">
<style type="text/css">
	.st0{fill:none;}
	.st1{fill:#1E7139;}
	.st2{fill:#C41F43;}
	.Graphic_x0020_Style{fill:none;stroke:url(#_x31_0_dpi_60_x25__3);stroke-miterlimit:10;}
	.Graphic_x0020_Style_x0020_3{fill:none;stroke:url(#_x31_0_dpi_60_x25__2);stroke-miterlimit:10;}
	.Graphic_x0020_Style_x0020_5{fill:none;stroke:url(#_x31_0_dpi_60_x25__3);stroke-miterlimit:10;}
	.st3{fill:none;stroke:#000000;stroke-width:2;stroke-miterlimit:10;}
	.st4{fill:#FFFFFF;stroke:#000000;stroke-miterlimit:10;}
	.st5{font-family:'MyriadPro-Bold';}
	.st6{font-size:14px;}
	.st7{fill:none;stroke:#000000;}
	.st8{fill:#00A651;}
	.st9{font-family:'MyriadPro-Regular';}
	.st10{font-size:12px;}
	.st11{fill:#ED1C24;}
	.st12{font-size:17.6411px;}
</style>
<pattern  x="-0.94" y="-87.64" width="28.8" height="28.8" patternUnits="userSpaceOnUse" id="_x31_0_dpi_60_x25__2" viewBox="4.32 -33.12 28.8 28.8" style="overflow:visible;">
	<g>
		<rect x="4.32" y="-33.12" class="st0" width="28.8" height="28.8"/>
		<g>
			<path class="st1" d="M33.12,0c2.38,0,4.32-1.93,4.32-4.32s-1.93-4.32-4.32-4.32c-2.39,0-4.32,1.93-4.32,4.32S30.73,0,33.12,0z"/>
			<path class="st1" d="M18.72,0c2.38,0,4.32-1.93,4.32-4.32s-1.94-4.32-4.32-4.32c-2.39,0-4.32,1.93-4.32,4.32S16.33,0,18.72,0z"/>
			<path class="st1" d="M33.12-14.4c2.38,0,4.32-1.93,4.32-4.32c0-2.38-1.93-4.32-4.32-4.32c-2.39,0-4.32,1.93-4.32,4.32
				C28.8-16.33,30.73-14.4,33.12-14.4z"/>
			<path class="st1" d="M18.72-14.4c2.38,0,4.32-1.93,4.32-4.32c0-2.38-1.94-4.32-4.32-4.32c-2.39,0-4.32,1.93-4.32,4.32
				C14.4-16.33,16.33-14.4,18.72-14.4z"/>
			<path class="st1" d="M11.52-7.2c2.38,0,4.32-1.93,4.32-4.32c0-2.39-1.94-4.32-4.32-4.32c-2.38,0-4.32,1.93-4.32,4.32
				C7.2-9.13,9.14-7.2,11.52-7.2z"/>
			<path class="st1" d="M25.92-7.2c2.38,0,4.32-1.93,4.32-4.32c0-2.39-1.94-4.32-4.32-4.32s-4.32,1.93-4.32,4.32
				C21.6-9.13,23.54-7.2,25.92-7.2z"/>
			<path class="st1" d="M11.52-21.6c2.38,0,4.32-1.93,4.32-4.32c0-2.39-1.94-4.32-4.32-4.32c-2.38,0-4.32,1.93-4.32,4.32
				C7.2-23.54,9.14-21.6,11.52-21.6z"/>
			<path class="st1" d="M25.92-21.6c2.38,0,4.32-1.93,4.32-4.32c0-2.39-1.94-4.32-4.32-4.32s-4.32,1.93-4.32,4.32
				C21.6-23.54,23.54-21.6,25.92-21.6z"/>
		</g>
		<g>
			<path class="st1" d="M4.32,0C6.7,0,8.64-1.93,8.64-4.32S6.7-8.64,4.32-8.64C1.93-8.64,0-6.71,0-4.32S1.93,0,4.32,0z"/>
			<path class="st1" d="M4.32-14.4c2.38,0,4.32-1.93,4.32-4.32c0-2.38-1.93-4.32-4.32-4.32C1.93-23.04,0-21.11,0-18.72
				C0-16.33,1.93-14.4,4.32-14.4z"/>
		</g>
		<g>
			<path class="st1" d="M33.12-28.8c2.38,0,4.32-1.93,4.32-4.32s-1.93-4.32-4.32-4.32c-2.39,0-4.32,1.93-4.32,4.32
				S30.73-28.8,33.12-28.8z"/>
			<path class="st1" d="M18.72-28.8c2.38,0,4.32-1.93,4.32-4.32s-1.94-4.32-4.32-4.32c-2.39,0-4.32,1.93-4.32,4.32
				S16.33-28.8,18.72-28.8z"/>
		</g>
		<g>
			<path class="st1" d="M4.32-28.8c2.38,0,4.32-1.93,4.32-4.32s-1.93-4.32-4.32-4.32C1.93-37.44,0-35.51,0-33.12
				S1.93-28.8,4.32-28.8z"/>
		</g>
	</g>
</pattern>
<pattern  x="-0.94" y="-87.64" width="28.8" height="28.8" patternUnits="userSpaceOnUse" id="_x31_0_dpi_60_x25__3" viewBox="4.32 -33.12 28.8 28.8" style="overflow:visible;">
	<g>
		<rect x="4.32" y="-33.12" class="st0" width="28.8" height="28.8"/>
		<g>
			<path class="st2" d="M33.12,0c2.38,0,4.32-1.93,4.32-4.32s-1.93-4.32-4.32-4.32c-2.39,0-4.32,1.93-4.32,4.32S30.73,0,33.12,0z"/>
			<path class="st2" d="M18.72,0c2.38,0,4.32-1.93,4.32-4.32s-1.94-4.32-4.32-4.32c-2.39,0-4.32,1.93-4.32,4.32S16.33,0,18.72,0z"/>
			<path class="st2" d="M33.12-14.4c2.38,0,4.32-1.93,4.32-4.32c0-2.38-1.93-4.32-4.32-4.32c-2.39,0-4.32,1.93-4.32,4.32
				C28.8-16.33,30.73-14.4,33.12-14.4z"/>
			<path class="st2" d="M18.72-14.4c2.38,0,4.32-1.93,4.32-4.32c0-2.38-1.94-4.32-4.32-4.32c-2.39,0-4.32,1.93-4.32,4.32
				C14.4-16.33,16.33-14.4,18.72-14.4z"/>
			<path class="st2" d="M11.52-7.2c2.38,0,4.32-1.93,4.32-4.32c0-2.39-1.94-4.32-4.32-4.32c-2.38,0-4.32,1.93-4.32,4.32
				C7.2-9.13,9.14-7.2,11.52-7.2z"/>
			<path class="st2" d="M25.92-7.2c2.38,0,4.32-1.93,4.32-4.32c0-2.39-1.94-4.32-4.32-4.32s-4.32,1.93-4.32,4.32
				C21.6-9.13,23.54-7.2,25.92-7.2z"/>
			<path class="st2" d="M11.52-21.6c2.38,0,4.32-1.93,4.32-4.32c0-2.39-1.94-4.32-4.32-4.32c-2.38,0-4.32,1.93-4.32,4.32
				C7.2-23.54,9.14-21.6,11.52-21.6z"/>
			<path class="st2" d="M25.92-21.6c2.38,0,4.32-1.93,4.32-4.32c0-2.39-1.94-4.32-4.32-4.32s-4.32,1.93-4.32,4.32
				C21.6-23.54,23.54-21.6,25.92-21.6z"/>
		</g>
		<g>
			<path class="st2" d="M4.32,0C6.7,0,8.64-1.93,8.64-4.32S6.7-8.64,4.32-8.64C1.93-8.64,0-6.71,0-4.32S1.93,0,4.32,0z"/>
			<path class="st2" d="M4.32-14.4c2.38,0,4.32-1.93,4.32-4.32c0-2.38-1.93-4.32-4.32-4.32C1.93-23.04,0-21.11,0-18.72
				C0-16.33,1.93-14.4,4.32-14.4z"/>
		</g>
		<g>
			<path class="st2" d="M33.12-28.8c2.38,0,4.32-1.93,4.32-4.32s-1.93-4.32-4.32-4.32c-2.39,0-4.32,1.93-4.32,4.32
				S30.73-28.8,33.12-28.8z"/>
			<path class="st2" d="M18.72-28.8c2.38,0,4.32-1.93,4.32-4.32s-1.94-4.32-4.32-4.32c-2.39,0-4.32,1.93-4.32,4.32
				S16.33-28.8,18.72-28.8z"/>
		</g>
		<g>
			<path class="st2" d="M4.32-28.8c2.38,0,4.32-1.93,4.32-4.32s-1.93-4.32-4.32-4.32C1.93-37.44,0-35.51,0-33.12
				S1.93-28.8,4.32-28.8z"/>
		</g>
	</g>
</pattern>
<path class="st3" d="M34.42,307.99c10.95-64.4,28.64-134.44,56.37-137.26c8.8-0.89,15.75,5.27,20.17,9.11
	c23.16,20.12,143.4,124.58,250.91,127.4c6.21,0.16,11.42-0.04,15.16-0.27"/>
<rect x="33.22" y="103.06" class="st3" width="343.82" height="204.08"/>
<path class="st4" d="M37.22,176.26"/>
<line class="Graphic_x0020_Style" x1="377.03" y1="129.28" x2="33.22" y2="129.28"/>
<text transform="matrix(1 0 0 1 171.7615 179.7157)"><tspan x="0" y="0" class="st5 st6">Therapeutic</tspan><tspan x="17.86" y="16.8" class="st5 st6">Range</tspan></text>
<g>
	<g>
		<line class="st7" x1="209.36" y1="138.62" x2="209.36" y2="164.19"/>
		<g>
			<polygon points="205.66,141.43 209.36,139.86 213.06,141.43 209.36,132.65 			"/>
		</g>
	</g>
</g>
<g>
	<g>
		<line class="st7" x1="209.36" y1="230.26" x2="209.36" y2="204.69"/>
		<g>
			<polygon points="213.06,227.45 209.36,229.02 205.66,227.45 209.36,236.22 			"/>
		</g>
	</g>
</g>
<text transform="matrix(1 0 0 1 266.4161 260.0447)" class="st8 st9 st10">efficacy</text>
<text transform="matrix(1 0 0 1 267.1844 120.464)" class="st11 st9 st10">toxicology</text>
<text transform="matrix(1 0 0 1 103.3169 260.3085)"><tspan x="0" y="0" class="st9 st10">duration</tspan><tspan x="0" y="14.4" class="st9 st10">of action</tspan></text>
<g>
	<g>
		<line class="st7" x1="53.59" y1="256.74" x2="93.9" y2="256.74"/>
		<g>
			<polygon points="56.39,260.45 54.82,256.74 56.39,253.04 47.62,256.74 			"/>
		</g>
	</g>
</g>
<g>
	<g>
		<line class="st7" x1="199.18" y1="256.74" x2="157.3" y2="256.74"/>
		<g>
			<polygon points="196.37,253.04 197.94,256.74 196.37,260.45 205.15,256.74 			"/>
		</g>
	</g>
</g>
<text transform="matrix(1 0 0 1 161.8922 327.2737)" class="st9 st6">Time</text>
<text transform="matrix(0 -1 1 0 28.2908 260.0439)" class="st9 st6">Concentration</text>
<path class="st3" d="M501.95,288.22c-0.96,0.15-2.3,0.22-3.86-0.17c-27.16-6.75-52.28-133.46-57.12-157.86
	c-0.92-4.66-2.37-12.13-4.65-11.36c-7.19,2.43-18.4,84-21.44,159.63l-0.43,10.74"/>
<rect x="412.3" y="103.06" class="st3" width="186.21" height="203.11"/>
<path class="st4" d="M412.3,167.98"/>
<line class="Graphic_x0020_Style_x0020_3" x1="598.51" y1="242.52" x2="412.3" y2="242.52"/>
<text transform="matrix(0.9666 0 0 1 477.0917 327.8232)" class="st9 st6">Time</text>
<text transform="matrix(0 -1.0345 1 0 402.0078 295.4775)" class="st9 st6">Pain      </text>
<path class="st3" d="M589.47,288.22c-0.96,0.15-2.3,0.22-3.86-0.17c-27.16-6.75-52.28-133.46-57.12-157.86
	c-0.92-4.66-2.37-12.13-4.65-11.36c-7.19,2.43-18.4,84-21.44,159.63l-0.43,10.74"/>
<text transform="matrix(0 -1.0345 1 0 401.8476 240.5039)" class="st9 st6">Normal       </text>
<text transform="matrix(0 -1.0345 1 0 401.6894 167.9824)" class="st9 st6"> Reward</text>
<line class="Graphic_x0020_Style_x0020_3" x1="377.03" y1="242.22" x2="34.42" y2="242.22"/>
<text transform="matrix(0 -1.0682 1 0 620.7924 295.1326)" class="st9 st6">Pain      </text>
<path class="st3" d="M816.71,244.02c-2.02-0.14-4.82-0.36-8.16-0.71c-57.74-6.03-119.57-34.74-131.47-40.26
	c-2.27-1.06-5.85-2.74-10.6-2.99c-14.99-0.79-32.92,12.92-34.05,26.9l-0.16,1.99c-1.15,11.92-1.15,11.92-1.15,11.92"/>
<path class="st3" d="M817.33,305.75H629.18c0-18.31,0-36.63,0-54.94c0-48.91,0-97.82,0-146.73c62.72,0,125.43,0,188.15,0V305.75z"/>
<path class="st4" d="M629.18,168.54"/>
<line class="Graphic_x0020_Style_x0020_3" x1="817.33" y1="260.46" x2="629.18" y2="260.46"/>
<text transform="matrix(0.9362 0 0 1 691.4916 327.2478)" class="st9 st6">Time</text>
<text transform="matrix(0 -1.0682 1 0 620.64 240.5466)" class="st9 st6">Normal       </text>
<text transform="matrix(0 -1.0682 1 0 620.4877 168.5388)" class="st9 st6"> Reward</text>
<line class="Graphic_x0020_Style_x0020_5" x1="598.51" y1="178.72" x2="412.3" y2="178.72"/>
<line class="Graphic_x0020_Style_x0020_5" x1="817.33" y1="134.72" x2="631.12" y2="134.72"/>
<text transform="matrix(1 0 0 1 37.2155 92.1771)" class="st9 st6">A. Drug Therapeutic Range</text>
<text transform="matrix(1 0 0 1 414.4384 92.1769)" class="st9 st6">B. Opioid with Risk of OUD</text>
<text transform="matrix(1 0 0 1 635.4547 92.1769)" class="st9 st6">C. Ideal Opioid</text>
<text transform="matrix(1.0506 0 0 1 81.0933 203.9799)" class="st5 st12">PK</text>
</svg>
